0
SECTION
2
HEADER
9
$INSUNITS
70
4
9
$ACADVER
1
AC1014
9
$HANDSEED
5
FFFF
0
ENDSEC
0
SECTION
2
TABLES
0
TABLE
2
VPORT
5
8
100
AcDbSymbolTable
0
ENDTAB
0
TABLE
2
LTYPE
5
5
100
AcDbSymbolTable
0
LTYPE
5
14
100
AcDbSymbolTableRecord
100
AcDbLinetypeTableRecord
2
BYBLOCK
70
0
0
LTYPE
5
15
100
AcDbSymbolTableRecord
100
AcDbLinetypeTableRecord
2
BYLAYER
70
0
0
ENDTAB
0
TABLE
2
LAYER
5
2
100
AcDbSymbolTable
70
2
0
LAYER
5
50
100
AcDbSymbolTableRecord
100
AcDbLayerTableRecord
2
0
70
0
6
CONTINUOUS
0
ENDTAB
0
TABLE
2
STYLE
5
3
100
AcDbSymbolTable
70
1
0
STYLE
5
11
100
AcDbSymbolTableRecord
100
AcDbTextStyleTableRecord
2
STANDARD
70
0
0
ENDTAB
0
TABLE
2
VIEW
5
6
100
AcDbSymbolTable
70
0
0
ENDTAB
0
TABLE
2
UCS
5
7
100
AcDbSymbolTable
70
0
0
ENDTAB
0
TABLE
2
APPID
5
9
100
AcDbSymbolTable
70
2
0
APPID
5
12
100
AcDbSymbolTableRecord
100
AcDbRegAppTableRecord
2
ACAD
70
0
0
ENDTAB
0
TABLE
2
DIMSTYLE
5
A
100
AcDbSymbolTable
70
1
0
ENDTAB
0
TABLE
2
BLOCK_RECORD
5
1
100
AcDbSymbolTable
70
1
0
BLOCK_RECORD
5
1F
100
AcDbSymbolTableRecord
100
AcDbBlockTableRecord
2
*MODEL_SPACE
0
BLOCK_RECORD
5
1B
100
AcDbSymbolTableRecord
100
AcDbBlockTableRecord
2
*PAPER_SPACE
0
ENDTAB
0
ENDSEC
0
SECTION
2
BLOCKS
0
BLOCK
5
20
100
AcDbEntity
100
AcDbBlockBegin
2
*MODEL_SPACE
0
ENDBLK
5
21
100
AcDbEntity
100
AcDbBlockEnd
0
BLOCK
5
1C
100
AcDbEntity
100
AcDbBlockBegin
2
*PAPER_SPACE
0
ENDBLK
5
1D
100
AcDbEntity
100
AcDbBlockEnd
0
ENDSEC
0
SECTION
2
ENTITIES
0
LWPOLYLINE
5
100
100
AcDbEntity
8
0
100
AcDbPolyline
90
4
70
1
43
0.0
10
-300
20
200
10
-300
20
6.000000000000016
10
-10
20
5.9999999999999787
10
-10
20
200
0
LWPOLYLINE
5
101
100
AcDbEntity
8
0
100
AcDbPolyline
90
12
70
1
43
0.0
10
-190.4163155395203
20
42.739739846218718
10
-190.4163155395203
20
56.517517623996469
10
-187.4163155395203
20
56.517517623996469
10
-187.4163155395203
20
70.295295401774183
10
-193.41631553952027
20
70.295295401774183
10
-193.41631553952027
20
73.295295401774169
10
-199.41631553952027
20
73.295295401774169
10
-199.41631553952027
20
13.29529540177437
10
-190.4163155395203
20
13.29529540177437
10
-190.4163155395203
20
28.961962068440972
10
-187.41631553952033
20
28.961962068440972
10
-187.4163155395203
20
42.739739846218718
0
LWPOLYLINE
5
102
100
AcDbEntity
8
0
100
AcDbPolyline
90
12
70
1
43
0.0
10
-207.41631553952027
20
70.295295401774183
10
-207.41631553952027
20
73.295295401774169
10
-213.41631553952027
20
73.295295401774169
10
-213.41631553952027
20
13.29529540177437
10
-204.41631553952027
20
13.29529540177437
10
-204.41631553952027
20
28.961962068440972
10
-201.41631553952033
20
28.961962068440972
10
-201.41631553952027
20
42.739739846218718
10
-204.41631553952027
20
42.739739846218718
10
-204.41631553952027
20
56.517517623996469
10
-201.41631553952027
20
56.517517623996469
10
-201.41631553952027
20
70.295295401774183
0
LWPOLYLINE
5
103
100
AcDbEntity
8
0
100
AcDbPolyline
90
16
70
1
43
0.0
10
-177.24012330156643
20
59.886928765590682
10
-177.24012330156643
20
69.886928765590596
10
-174.24012330156654
20
69.886928765590596
10
-174.24012330156654
20
92.286928765590375
10
-180.2401233015664
20
92.286928765590375
10
-180.2401233015664
20
89.286928765590474
10
-186.24012330156629
20
89.286928765590474
10
-186.24012330156634
20
14.286928765591099
10
-180.2401233015664
20
14.286928765591099
10
-180.2401233015664
20
11.286928765591153
10
-174.24012330156646
20
11.286928765591151
10
-174.24012330156646
20
33.686928765590977
10
-177.24012330156643
20
33.686928765590977
10
-177.24012330156643
20
43.686928765590878
10
-174.24012330156646
20
43.686928765590842
10
-174.24012330156646
20
59.886928765590682
0
LWPOLYLINE
5
104
100
AcDbEntity
8
0
100
AcDbPolyline
90
4
70
1
43
0.0
10
-181.7401233015664
20
31.786928765590954
10
-178.74012330156643
20
31.786928765590954
10
-178.74012330156643
20
28.786928765590986
10
-181.7401233015664
20
28.786928765590986
0
LWPOLYLINE
5
105
100
AcDbEntity
8
0
100
AcDbPolyline
90
4
70
1
43
0.0
10
-181.7401233015664
20
74.786928765590574
10
-178.74012330156643
20
74.786928765590574
10
-178.74012330156643
20
71.786928765590631
10
-181.7401233015664
20
71.786928765590631
0
LWPOLYLINE
5
106
100
AcDbEntity
8
0
100
AcDbPolyline
90
10
70
1
43
0.0
10
-263.93533642930458
20
61.373886795944685
10
-263.93533642930458
20
60.532130549296632
10
-262.3429365622402
20
60.532130549296632
10
-262.3429365622402
20
59.641749133938788
10
-263.93533642930458
20
59.641749133938788
10
-263.93533642930458
20
57.923351925873561
10
-265.13049375860294
20
57.923351925873561
10
-265.13049375860294
20
62.270254792918493
10
-261.92091802750326
20
62.270254792918493
10
-261.92091802750326
20
61.373886795944685
0
LWPOLYLINE
5
107
100
AcDbEntity
8
0
100
AcDbPolyline
90
24
70
1
43
0.0
10
-294.32515223095373
20
109.64393373803094
10
-294.32515223095373
20
95.866155960253238
10
-297.32509713600865
20
95.866155960253238
10
-297.32509713600865
20
82.088378182475537
10
-294.32515223095373
20
82.088378182475509
10
-294.32515223095373
20
68.31060040469778
10
-297.32509713600865
20
68.31060040469778
10
-297.32509713600865
20
52.643933738031151
10
-216.3350971360089
20
52.643933738031173
10
-216.33509713600893
20
68.310600404697809
10
-219.32515223095402
20
68.310600404697851
10
-219.32515223095402
20
82.088378182475566
10
-216.33509713600893
20
82.088378182475566
10
-216.33509713600893
20
95.866155960253252
10
-219.32515223095402
20
95.866155960253252
10
-219.32515223095402
20
109.64393373803098
10
-238.72515223095391
20
109.64393373803098
10
-238.72515223095391
20
112.643933738031
10
-248.72515223095388
20
112.643933738031
10
-248.72515223095388
20
109.64393373803098
10
-264.92515223095387
20
109.64393373803098
10
-264.92515223095387
20
112.643933738031
10
-274.92515223095387
20
112.643933738031
10
-274.92515223095387
20
109.64393373803098
0
LWPOLYLINE
5
108
100
AcDbEntity
8
0
100
AcDbPolyline
90
8
70
1
43
0.0
10
-261.14388068201487
20
57.939589259296696
10
-262.30389895449127
20
57.923135099403396
10
-260.88884120366902
20
62.270254792918493
10
-259.4737834528467
20
62.275260391176623
10
-258.1656777413308
20
57.923313638528427
10
-259.45732929295343
20
57.931362179350081
10
-259.70119935081459
20
58.757534212104055
10
-260.87946947370557
20
58.757534212104055
0
LINE
5
109
100
AcDbEntity
8
0
100
AcDbLine
10
-257.34856562129278
20
65.627099935141885
30
0
11
-257.34856562129283
21
63.374841920184146
31
0
0
LWPOLYLINE
5
110
100
AcDbEntity
8
0
100
AcDbPolyline
90
8
70
1
43
0.0
10
-249.05849549296551
20
58.740721321704584
10
-249.32290670127483
20
57.92277636889726
10
-250.48292497375127
20
57.90632220900396
10
-249.06786722292895
20
62.253441902519022
10
-247.65280947210667
20
62.258447500777152
10
-246.3447037605907
20
57.906500748128956
10
-247.63635531221337
20
57.91454928895061
10
-247.8802253700745
20
58.740721321704584
0
LINE
5
111
100
AcDbEntity
8
0
100
AcDbLine
10
-267.5330239583003
20
71.545259053216995
30
0
11
-267.53302395830036
21
75.115140855196088
31
0
0
ARC
5
112
100
AcDbEntity
8
0
100
AcDbCircle
10
-256.67322007630651
20
83.363436377895852
30
0
40
19.999999999999954
210
0
220
0
230
1
100
AcDbArc
50
151.22989820543927
51
268.06490966806899
0
LINE
5
113
100
AcDbEntity
8
0
100
AcDbLine
10
-263.52551880183057
20
92.752830757200684
30
0
11
-263.49120369484547
21
92.812272772396199
31
0
0
LINE
5
114
100
AcDbEntity
8
0
100
AcDbLine
10
-272.4390213069255
20
91.864380126263399
30
0
11
-272.4390213069255
21
74.396119843379481
31
0
0
LINE
5
115
100
AcDbEntity
8
0
100
AcDbLine
10
-272.4390213069255
20
74.396119843379481
30
0
11
-267.5330239583003
21
71.545259053216995
31
0
0
LINE
5
116
100
AcDbEntity
8
0
100
AcDbLine
10
-261.4471606208773
20
72.734471164404809
30
0
11
-261.4471606208773
21
68.008781568611568
31
0
0
LWPOLYLINE
5
117
100
AcDbEntity
8
0
100
AcDbPolyline
90
9
70
1
43
0.0
10
-269.20393329500558
20
57.923313638528427
10
-269.20393329500558
20
59.699933406773901
10
-270.62249700671555
20
62.248417570574752
10
-269.22336791002903
20
62.254674908262857
10
-268.51060302991112
20
60.974175488674327
10
-267.79566717520458
20
62.26106002714608
10
-266.63762756362576
20
62.2662391381538
10
-268.06335296994791
20
59.699933406773901
10
-268.06335296994786
20
57.923313638528427
0
LWPOLYLINE
5
118
100
AcDbEntity
8
0
100
AcDbPolyline
90
5
70
1
43
0.0
10
-242.79814425274466
20
60.169302735260182
42
0.7564131852871101
10
-243.18645831297209
20
62.272757592047576
10
-245.82653067785031
20
62.272757592047576
10
-245.82653067785031
20
57.923351925873561
10
-243.24445623623507
20
57.923351925873561
42
0.78320814608204159
0
LINE
5
119
100
AcDbEntity
8
0
100
AcDbLine
10
-239.57134356109407
20
93.732902114298184
30
0
11
-241.42828621876822
21
92.766548880444077
31
0
0
ARC
5
120
100
AcDbEntity
8
0
100
AcDbCircle
10
-256.67322007630651
20
83.363436377895852
30
0
40
19.999999999999908
210
-0
220
0
230
1
100
AcDbArc
50
-88.770101794560773
51
28.064909668069024
0
LWPOLYLINE
5
121
100
AcDbEntity
8
0
100
AcDbPolyline
90
13
70
1
43
0.0
10
-258.85220250304985
20
94.774282117118418
10
-260.56175477953479
20
93.690761885681184
42
0.5619342121817259
10
-260.55867526715423
20
93.519959123517651
10
-258.73845699107289
20
92.456273406957507
10
-257.25546256773407
20
89.133709674758649
42
0.45737943860823405
10
-257.11061223364624
20
89.090004093412347
10
-255.23770256965821
20
90.27706081024931
42
0.40514092772724158
10
-255.20514965955141
20
90.41240817344314
10
-256.21990030441725
20
92.129201275112507
10
-253.17972324782463
20
91.581415325614614
10
-251.24195557311367
20
92.809579277226277
42
0.70367400520584344
10
-251.28312704561307
20
92.993276182448341
10
-257.03402635475595
20
93.70970207160201
0
LINE
5
122
100
AcDbEntity
8
0
100
AcDbLine
10
-263.49120369484547
20
92.812272772396199
30
0
11
-267.58377093520221
21
95.175117570292798
31
0
0
LINE
5
123
100
AcDbEntity
8
0
100
AcDbLine
10
-241.42828621876822
20
92.766548880444077
30
0
11
-256.55624338366448
21
101.50067902188607
31
0
0
SPLINE
5
124
100
AcDbEntity
8
0
100
AcDbSpline
70
4
71
5
72
105
73
99
74
0
42
0.000000001
43
0.0000000001
44
0.0000000001
40
0
40
0
40
0
40
0
40
0
40
0
40
0.010526315789473684
40
0.021052631578947368
40
0.031578947368421047
40
0.042105263157894736
40
0.052631578947368418
40
0.063157894736842093
40
0.073684210526315769
40
0.084210526315789472
40
0.094736842105263161
40
0.10526315789473686
40
0.11578947368421055
40
0.12631578947368424
40
0.13684210526315793
40
0.14736842105263162
40
0.15789473684210534
40
0.168421052631579
40
0.17894736842105269
40
0.18947368421052641
40
0.20000000000000007
40
0.21052631578947376
40
0.22105263157894744
40
0.23157894736842119
40
0.2421052631578948
40
0.25263157894736848
40
0.26315789473684209
40
0.27368421052631581
40
0.28421052631578952
40
0.29473684210526313
40
0.30526315789473679
40
0.31578947368421045
40
0.32631578947368411
40
0.33684210526315778
40
0.34736842105263144
40
0.3578947368421051
40
0.36842105263157882
40
0.37894736842105242
40
0.38947368421052608
40
0.39999999999999969
40
0.41052631578947352
40
0.42105263157894712
40
0.43157894736842067
40
0.44210526315789439
40
0.45263157894736811
40
0.46315789473684171
40
0.47368421052631537
40
0.48421052631578898
40
0.4947368421052627
40
0.50526315789473641
40
0.51578947368421013
40
0.52631578947368385
40
0.53684210526315757
40
0.54736842105263128
40
0.557894736842105
40
0.56842105263157872
40
0.57894736842105243
40
0.58947368421052615
40
0.59999999999999987
40
0.61052631578947358
40
0.6210526315789473
40
0.63157894736842102
40
0.64210526315789473
40
0.65263157894736845
40
0.66315789473684217
40
0.67368421052631589
40
0.6842105263157896
40
0.69473684210526332
40
0.70526315789473704
40
0.71578947368421075
40
0.72631578947368447
40
0.73684210526315819
40
0.7473684210526319
40
0.75789473684210562
40
0.76842105263157945
40
0.77894736842105305
40
0.78947368421052655
40
0.80000000000000049
40
0.81052631578947421
40
0.82105263157894781
40
0.83157894736842164
40
0.84210526315789536
40
0.85263157894736896
40
0.8631578947368429
40
0.87368421052631651
40
0.88421052631579022
40
0.89473684210526383
40
0.90526315789473755
40
0.91578947368421115
40
0.9263157894736852
40
0.93684210526315881
40
0.94736842105263241
40
0.95789473684210624
40
0.96842105263157996
40
0.97894736842105379
40
0.983572571789881
40
0.983572571789881
40
0.983572571789881
40
0.983572571789881
40
0.983572571789881
40
0.983572571789881
41
1
41
1
41
1
41
1
41
1
41
1
41
1
41
1
41
1
41
1
41
1
41
1
41
1
41
1
41
1
41
1
41
1
41
1
41
1
41
1
41
1
41
1
41
1
41
1
41
1
41
1
41
1
41
1
41
1
41
1
41
1
41
1
41
1
41
1
41
1
41
1
41
1
41
1
41
1
41
1
41
1
41
1
41
1
41
1
41
1
41
1
41
1
41
1
41
1
41
1
41
1
41
1
41
1
41
1
41
1
41
1
41
1
41
1
41
1
41
1
41
1
41
1
41
1
41
1
41
1
41
1
41
1
41
1
41
1
41
1
41
1
41
1
41
1
41
1
41
1
41
1
41
1
41
1
41
1
41
1
41
1
41
1
41
1
41
1
41
1
41
1
41
1
41
1
41
1
41
1
41
1
41
1
41
1
41
1
41
1
41
1
41
1
41
1
41
1
10
-267.53302395830036
20
75.115140855196088
30
0
10
-267.54909257015447
20
75.134259829136113
30
0
10
-267.58352986659679
20
75.1760110325542
30
0
10
-267.64208513415036
20
75.24917686430237
30
0
10
-267.73396772709782
20
75.367819582427103
30
0
10
-267.87091153361297
20
75.550441785838785
30
0
10
-268.0272936738138
20
75.764979992485536
30
0
10
-268.19750498956637
20
76.006363406790115
30
0
10
-268.37368306352198
20
76.267360429652285
30
0
10
-268.54741399670678
20
76.539921494750772
30
0
10
-268.71118179352391
20
76.816295005518157
30
0
10
-268.85979569660913
20
77.09016508077444
30
0
10
-268.9921581749777
20
77.357967790730527
30
0
10
-269.11031540740413
20
77.618688208331818
30
0
10
-269.21780490552135
20
77.873281252932486
30
0
10
-269.31830785695274
20
78.124220786698004
30
0
10
-269.41403045646086
20
78.375001777216113
30
0
10
-269.50463002957258
20
78.629647966265026
30
0
10
-269.58840385615895
20
78.892160659619236
30
0
10
-269.66322299620691
20
79.165951500196016
30
0
10
-269.72746484932111
20
79.453337032137441
30
0
10
-269.78119829525889
20
79.75486438117872
30
0
10
-269.82564169651147
20
80.069621926144919
30
0
10
-269.86208668540195
20
80.395848746752961
30
0
10
-269.89094510947058
20
80.731470468142248
30
0
10
-269.91086901407976
20
81.074605892849618
30
0
10
-269.91751922731606
20
81.424238207754939
30
0
10
-269.90439222290422
20
81.779905970744053
30
0
10
-269.86440127785096
20
82.14103420228291
30
0
10
-269.79123389719359
20
82.506371382582245
30
0
10
-269.68074879574704
20
82.873409021005841
30
0
10
-269.53248583457616
20
83.237743372322626
30
0
10
-269.35075063923068
20
83.592650987993665
30
0
10
-269.14258976802677
20
83.930221347346432
30
0
10
-268.91613319839553
20
84.242307236755664
30
0
10
-268.67872379274723
20
84.521578422067705
30
0
10
-268.43530338471862
20
84.762455453505112
30
0
10
-268.18628724057277
20
84.962280069587621
30
0
10
-267.92694013204778
20
85.121793646153463
30
0
10
-267.65041652756003
20
85.243903444018827
30
0
10
-267.35021928353109
20
85.332746858636625
30
0
10
-267.02263746700726
20
85.392702358425154
30
0
10
-266.6697979492422
20
85.4272708336687
30
0
10
-266.30034730825787
20
85.438546090927616
30
0
10
-265.92615031362482
20
85.427691315128058
30
0
10
-265.5599597470121
20
85.395177892652399
30
0
10
-265.21260774537291
20
85.341123495545787
30
0
10
-264.89060584784175
20
85.265578210365263
30
0
10
-264.59302819348801
20
85.16885719777747
30
0
10
-264.31350964015689
20
85.051632629221885
30
0
10
-264.04317879967959
20
84.91498106566371
30
0
10
-263.77331264328399
20
84.760452274588289
30
0
10
-263.498000198851
20
84.590116003757572
30
0
10
-263.2170903202948
20
84.406654216850541
30
0
10
-262.93457750108757
20
84.21290802664754
30
0
10
-262.65660510983815
20
84.01139411479673
30
0
10
-262.38952347299227
20
83.803796813438652
30
0
10
-262.13811886096818
20
83.590549659533451
30
0
10
-261.90328038644128
20
83.370176828203853
30
0
10
-261.68237583717155
20
83.139749092098754
30
0
10
-261.47099152361443
20
82.895885683637687
30
0
10
-261.26430575398888
20
82.635630286244748
30
0
10
-261.05847647770929
20
82.357279182508876
30
0
10
-260.85236121407598
20
82.061477536814849
30
0
10
-260.64772070598156
20
81.75119736475267
30
0
10
-260.44798042722664
20
81.430664746613132
30
0
10
-260.25740904036456
20
81.104593165662465
30
0
10
-260.08009757257656
20
80.777264274047198
30
0
10
-259.91909199748466
20
80.451738403562018
30
0
10
-259.77528171194871
20
80.128840075018559
30
0
10
-259.6478161249596
20
79.807590525175726
30
0
10
-259.53484363951225
20
79.485947055930765
30
0
10
-259.43416058842183
20
79.161456973633534
30
0
10
-259.34385042803791
20
78.831901081106594
30
0
10
-259.26304134304513
20
78.496052853255222
30
0
10
-259.19221287073464
20
78.153998301222202
30
0
10
-259.13276598863217
20
77.806737825458669
30
0
10
-259.08676651305018
20
77.455958163497726
30
0
10
-259.05661891658315
20
77.1037337116922
30
0
10
-259.04477077113677
20
76.752264537245949
30
0
10
-259.05340223399315
20
76.403582347584674
30
0
10
-259.08420609150949
20
76.059635619531647
30
0
10
-259.13818316037799
20
75.722387484427188
30
0
10
-259.21540663789125
20
75.393921333354797
30
0
10
-259.31485586851886
20
75.076515478313482
30
0
10
-259.43407716658811
20
74.772800393104475
30
0
10
-259.56956031254816
20
74.485568930898239
30
0
10
-259.71756790471738
20
74.217368609612578
30
0
10
-259.87486552598102
20
73.970137539097905
30
0
10
-260.03941298073789
20
73.744868908844452
30
0
10
-260.21127612219902
20
73.541143227939088
30
0
10
-260.39229568931381
20
73.357392866744334
30
0
10
-260.585190872434
20
73.191501918831293
30
0
10
-260.79290080334732
20
73.041259530195802
30
0
10
-260.99249417947442
20
72.920244542690412
30
0
10
-261.15800075902808
20
72.834154944128301
30
0
10
-261.28101580647905
20
72.776828173364734
30
0
10
-261.35557885868536
20
72.744288127982642
30
0
10
-261.37852477217331
20
72.734474417619893
30
0
0
SPLINE
5
125
100
AcDbEntity
8
0
100
AcDbSpline
70
4
71
5
72
105
73
99
74
0
42
0.000000001
43
0.0000000001
44
0.0000000001
40
0
40
0
40
0
40
0
40
0
40
0
40
0.010526315789473684
40
0.021052631578947368
40
0.031578947368421047
40
0.042105263157894736
40
0.052631578947368418
40
0.063157894736842093
40
0.073684210526315769
40
0.084210526315789472
40
0.094736842105263161
40
0.10526315789473686
40
0.11578947368421055
40
0.12631578947368424
40
0.13684210526315793
40
0.14736842105263162
40
0.15789473684210534
40
0.168421052631579
40
0.17894736842105269
40
0.18947368421052641
40
0.20000000000000007
40
0.21052631578947376
40
0.22105263157894744
40
0.23157894736842119
40
0.2421052631578948
40
0.25263157894736848
40
0.26315789473684209
40
0.27368421052631581
40
0.28421052631578952
40
0.29473684210526313
40
0.30526315789473679
40
0.31578947368421045
40
0.32631578947368411
40
0.33684210526315778
40
0.34736842105263144
40
0.3578947368421051
40
0.36842105263157882
40
0.37894736842105242
40
0.38947368421052608
40
0.39999999999999969
40
0.41052631578947352
40
0.42105263157894712
40
0.43157894736842067
40
0.44210526315789439
40
0.45263157894736811
40
0.46315789473684171
40
0.47368421052631537
40
0.48421052631578898
40
0.4947368421052627
40
0.50526315789473641
40
0.51578947368421013
40
0.52631578947368385
40
0.53684210526315757
40
0.54736842105263128
40
0.557894736842105
40
0.56842105263157872
40
0.57894736842105243
40
0.58947368421052615
40
0.59999999999999987
40
0.61052631578947358
40
0.6210526315789473
40
0.63157894736842102
40
0.64210526315789473
40
0.65263157894736845
40
0.66315789473684217
40
0.67368421052631589
40
0.6842105263157896
40
0.69473684210526332
40
0.70526315789473704
40
0.71578947368421075
40
0.72631578947368447
40
0.73684210526315819
40
0.7473684210526319
40
0.75789473684210562
40
0.76842105263157945
40
0.77894736842105305
40
0.78947368421052655
40
0.80000000000000049
40
0.81052631578947421
40
0.82105263157894781
40
0.83157894736842164
40
0.84210526315789536
40
0.85263157894736896
40
0.8631578947368429
40
0.87368421052631651
40
0.88421052631579022
40
0.89473684210526383
40
0.90526315789473755
40
0.91578947368421115
40
0.9263157894736852
40
0.93684210526315881
40
0.94736842105263241
40
0.95789473684210624
40
0.96842105263157996
40
0.97894736842105379
40
0.983572571789881
40
0.983572571789881
40
0.983572571789881
40
0.983572571789881
40
0.983572571789881
40
0.983572571789881
41
1
41
1
41
1
41
1
41
1
41
1
41
1
41
1
41
1
41
1
41
1
41
1
41
1
41
1
41
1
41
1
41
1
41
1
41
1
41
1
41
1
41
1
41
1
41
1
41
1
41
1
41
1
41
1
41
1
41
1
41
1
41
1
41
1
41
1
41
1
41
1
41
1
41
1
41
1
41
1
41
1
41
1
41
1
41
1
41
1
41
1
41
1
41
1
41
1
41
1
41
1
41
1
41
1
41
1
41
1
41
1
41
1
41
1
41
1
41
1
41
1
41
1
41
1
41
1
41
1
41
1
41
1
41
1
41
1
41
1
41
1
41
1
41
1
41
1
41
1
41
1
41
1
41
1
41
1
41
1
41
1
41
1
41
1
41
1
41
1
41
1
41
1
41
1
41
1
41
1
41
1
41
1
41
1
41
1
41
1
41
1
41
1
41
1
41
1
10
-258.38655159588905
20
96.892450181169281
30
0
10
-258.36195977283569
20
96.896806520268484
30
0
10
-258.30858352181588
20
96.905754492116145
30
0
10
-258.21594241905609
20
96.919881925468871
30
0
10
-258.06725351471232
20
96.940133226064589
30
0
10
-257.84062614400517
20
96.967418939691825
30
0
10
-257.57663953686631
20
96.995580742480485
30
0
10
-257.28248971015
20
97.022296358781517
30
0
10
-256.96837062106147
20
97.044372534985797
30
0
10
-256.64546034801117
20
97.058547403997792
30
0
10
-256.32422996834504
20
97.062187720979551
30
0
10
-256.01274457429417
20
97.053956098778755
30
0
10
-255.7146393850856
20
97.034684012575738
30
0
10
-255.42977026394436
20
97.006650968697244
30
0
10
-255.15554147063472
20
96.972443082406485
30
0
10
-254.88796998386431
20
96.934011424618589
30
0
10
-254.62292597553528
20
96.891519132249869
30
0
10
-254.35709612028614
20
96.842657569612214
30
0
10
-254.08786654573237
20
96.783951484931094
30
0
10
-253.81334715244543
20
96.711851340613492
30
0
10
-253.53234305454694
20
96.623793651425913
30
0
10
-253.24434598737253
20
96.519564506120304
30
0
10
-252.94953625677269
20
96.400674848152505
30
0
10
-252.64879304828509
20
96.269123724068237
30
0
10
-252.34370689946576
20
96.126304991730251
30
0
10
-252.03658095242619
20
95.971991886910672
30
0
10
-251.73046537911605
20
95.80293498306122
30
0
10
-251.42901156326622
20
95.613732782270404
30
0
10
-251.13626081325646
20
95.398535492163575
30
0
10
-250.85645322449895
20
95.152502091636222
30
0
10
-250.59383185620237
20
94.873300367831988
30
0
10
-250.35244053307619
20
94.562733701359392
30
0
10
-250.1359491195812
20
94.227892597592955
30
0
10
-249.94768504841903
20
93.878834815380046
30
0
10
-249.79063902484359
20
93.526674728520902
30
0
10
-249.66748778664257
20
93.181436559476083
30
0
10
-249.58059236224383
20
92.850189786605057
30
0
10
-249.53204724048786
20
92.534623171781021
30
0
10
-249.52357798519583
20
92.230265199117412
30
0
10
-249.5560896004373
20
91.92973383395227
30
0
10
-249.62924756843378
20
91.625333687168251
30
0
10
-249.74111549078228
20
91.311661762346503
30
0
10
-249.88759807193378
20
90.988809538881128
30
0
10
-250.06255873320555
20
90.663218269714818
30
0
10
-250.25905774211682
20
90.344581554242609
30
0
10
-250.47031047525113
20
90.043707932167578
30
0
10
-250.69079895715129
20
89.769919473245992
30
0
10
-250.91722404201934
20
89.528830292507493
30
0
10
-251.14977572317699
20
89.319480990532441
30
0
10
-251.39105445415936
20
89.136023106796429
30
0
10
-251.64456359990623
20
88.97023551329579
30
0
10
-251.91332253679147
20
88.813788961773241
30
0
10
-252.19849429673329
20
88.660529526331572
30
0
10
-252.49783180409653
20
88.508985328781478
30
0
10
-252.80687733630245
20
88.361195145554703
30
0
10
-253.12037969880592
20
88.221220949107462
30
0
10
-253.43370505396206
20
88.093720117393588
30
0
10
-253.74408481254076
20
87.982620913704778
30
0
10
-254.05235252003951
20
87.889431244643276
30
0
10
-254.36236106787791
20
87.813336161216739
30
0
10
-254.6792451314372
20
87.752203679945211
30
0
10
-255.00797580186429
20
87.70333625154521
30
0
10
-255.35194956701076
20
87.664258421312482
30
0
10
-255.71117893847972
20
87.633658189745276
30
0
10
-256.08220970382337
20
87.611574397123235
30
0
10
-256.45966923325119
20
87.598860550632267
30
0
10
-256.8373411992377
20
87.596856678850656
30
0
10
-257.2094720686631
20
87.606964889171593
30
0
10
-257.57188852963827
20
87.63029290623362
30
0
10
-257.92343182776443
20
87.667198709905705
30
0
10
-258.26537489237717
20
87.717435048386321
30
0
10
-258.60041255042836
20
87.780419740682703
30
0
10
-258.93177073051908
20
87.855470701856504
30
0
10
-259.26232958560615
20
87.942037755007647
30
0
10
-259.59358722523785
20
88.039979148473009
30
0
10
-259.92522939293383
20
88.149667168157436
30
0
10
-260.25568922772652
20
88.271814895962677
30
0
10
-260.5824730639066
20
88.407368012528337
30
0
10
-260.9025821852378
20
88.557371654027648
30
0
10
-261.21288749167854
20
88.722845446306451
30
0
10
-261.51053939434422
20
88.904661607242517
30
0
10
-261.79300406962852
20
89.103311894412798
30
0
10
-262.05808098757365
20
89.318681474826917
30
0
10
-262.30392927992904
20
89.549792043658201
30
0
10
-262.52908619839093
20
89.794620531289155
30
0
10
-262.73250052865984
20
90.049726746693821
30
0
10
-262.91350869871656
20
90.310674323982994
30
0
10
-263.07177319416849
20
90.572952819397301
30
0
10
-263.2072327712072
20
90.832792090623826
30
0
10
-263.32004740030396
20
91.087928681698074
30
0
10
-263.41054744464077
20
91.338629368630279
30
0
10
-263.47917014183258
20
91.587272092931158
30
0
10
-263.526388325423
20
91.837269695737405
30
0
10
-263.55264708524999
20
92.092272966844391
30
0
10
-263.55765245060473
20
92.325633394750284
30
0
10
-263.54945494018432
20
92.512011096418235
30
0
10
-263.53759385625699
20
92.647208637940324
30
0
10
-263.52849283609498
20
92.728052158025747
30
0
10
-263.52551880183057
20
92.752830757200684
30
0
0
LINE
5
126
100
AcDbEntity
8
0
100
AcDbLine
10
-261.37852477217331
20
72.734474417619893
30
0
11
-261.4471606208773
21
72.734471164404809
31
0
0
LWPOLYLINE
5
127
100
AcDbEntity
8
0
100
AcDbPolyline
90
7
70
1
43
0.0
10
-254.15771052656297
20
59.199494025168349
42
0.26853850969742071
10
-254.83260803518294
20
60.169302735260203
42
0.83228950527140788
10
-255.42748146934528
20
62.27275759204754
10
-257.86099446028857
20
62.272757592047576
10
-257.86099446028857
20
57.923351925873561
10
-255.27892001867332
20
57.923351925873547
42
0.37689462000007612
10
-254.15771052656294
20
59.003308569794306
0
LINE
5
128
100
AcDbEntity
8
0
100
AcDbLine
10
-267.58377093520221
20
95.175117570292798
30
0
11
-271.69566523330604
21
92.81647099756367
31
0
0
LWPOLYLINE
5
129
100
AcDbEntity
8
0
100
AcDbPolyline
90
4
70
1
43
0.0
10
-267.10635869816883
20
59.25344637299596
10
-267.10635869816883
20
59.937770327674855
10
-265.54494347763381
20
59.937770327674855
10
-265.54494347763381
20
59.25344637299596
0
LINE
5
130
100
AcDbEntity
8
0
100
AcDbLine
10
-245.11561665491573
20
84.603003958867021
30
0
11
-245.08129591319681
21
84.54356519688659
31
0
0
LINE
5
131
100
AcDbEntity
8
0
100
AcDbLine
10
-241.00847634570846
20
79.867658998311754
30
0
11
-244.10008467473017
21
78.082718097322214
31
0
0
LINE
5
132
100
AcDbEntity
8
0
100
AcDbLine
10
-256.55624338366448
20
101.50067902188607
30
0
11
-261.4781599249107
21
98.677391082158863
31
0
0
LINE
5
133
100
AcDbEntity
8
0
100
AcDbLine
10
-271.69566523330604
20
92.81647099756367
30
0
11
-273.64617789013658
21
93.942600005042536
31
0
0
LWPOLYLINE
5
134
100
AcDbEntity
8
0
100
AcDbPolyline
90
13
70
1
43
0.0
10
-251.3029899540573
20
76.228989902530813
10
-249.30850487765966
20
78.587967490793659
10
-251.30266663918019
20
78.567564204667889
42
-0.40514092772716259
10
-251.40360443898783
20
78.663429533384416
10
-251.49517087950758
20
80.878945239809951
42
-0.45737943860807834
10
-251.3848955687306
20
80.98253651820346
10
-247.76597375928415
20
80.60556549638612
10
-245.93468576905977
20
81.650077905625253
42
-0.56193421218183814
10
-245.78522648179927
20
81.567343460496247
10
-245.70164657410271
20
79.545067644244185
10
-247.53268801202881
20
78.502770934024994
10
-251.0285806865362
20
73.880558982277677
42
-0.70367400520601675
10
-251.20825260930479
20
73.936751893792987
0
ARC
5
135
100
AcDbEntity
8
0
100
AcDbCircle
10
-256.67322007630651
20
83.363436377895852
30
0
40
19.999999999999925
210
0
220
-0
230
1
100
AcDbArc
50
31.229898205439312
51
148.06490966806905
0
LWPOLYLINE
5
136
100
AcDbEntity
8
0
100
AcDbPolyline
90
6
70
1
43
0.0
10
-250.84284308224198
20
58.833980671206881
10
-250.84284308224198
20
57.923313638528427
10
-253.68278019846292
20
57.923313638528427
10
-253.68278019846292
20
62.272757592047576
10
-252.47429631922
20
62.272757592047576
10
-252.47429631921995
20
58.833980671206881
0
LINE
5
137
100
AcDbEntity
8
0
100
AcDbLine
10
-274.20437908530948
20
92.98936302425318
30
0
11
-272.4390213069255
21
91.864380126263399
31
0
0
LINE
5
138
100
AcDbEntity
8
0
100
AcDbLine
10
-261.4781599249107
20
98.677391082158863
30
0
11
-258.38655159588905
21
96.892450181169281
31
0
0
LINE
5
139
100
AcDbEntity
8
0
100
AcDbLine
10
-261.4471606208773
20
68.008781568611568
30
0
11
-257.34856562129278
21
65.627099935141885
31
0
0
LINE
5
140
100
AcDbEntity
8
0
100
AcDbLine
10
-240.9754293743207
20
91.646738200982043
30
0
11
-239.02491671749016
21
92.772867208460923
31
0
0
LINE
5
141
100
AcDbEntity
8
0
100
AcDbLine
10
-241.0243955383296
20
74.193510268422045
30
0
11
-241.00847634570846
21
79.867658998311754
31
0
0
LINE
5
142
100
AcDbEntity
8
0
100
AcDbLine
10
-245.08129591319681
20
84.54356519688659
30
0
11
-240.98872867284001
21
86.90640999478326
31
0
0
LWPOLYLINE
5
143
100
AcDbEntity
8
0
100
AcDbPolyline
90
13
70
1
43
0.0
10
-265.53694702703763
20
82.279903905542184
10
-267.56945204650111
20
83.343977962668362
42
0.70367400520579915
10
-267.70795249677025
20
83.216473968961651
10
-265.45294586213475
20
77.877836128060622
10
-265.46581115176701
20
75.770959372325009
10
-263.67267896758551
20
74.832203787510139
42
0.56193421218183415
10
-263.52629919270561
20
74.920272104544779
10
-263.51522947856256
20
77.028470230343984
10
-261.37930209245491
20
79.974062940725531
42
0.45737943860833358
10
-261.41387711576579
20
80.12135980046537
10
-263.37835322027354
20
81.149818790053899
42
0.40514092772715699
10
-263.51184393018804
20
81.11033675557664
10
-264.4912550468427
20
79.373140367781431
0
LINE
5
144
100
AcDbEntity
8
0
100
AcDbLine
10
-260.59133630691451
20
59.645152581511198
30
0
11
-260.26462780673279
21
60.667558005609187
31
0
0
LWPOLYLINE
5
145
100
AcDbEntity
8
0
100
AcDbPolyline
90
4
70
1
43
0.0
10
-256.65445465281113
20
61.390246184140508
10
-256.65445465281113
20
60.533183269228552
10
-255.87571703926841
20
60.533183269228552
42
0.99999999999999989
10
-255.87571703926841
20
61.390246184140544
0
LINE
5
146
100
AcDbEntity
8
0
100
AcDbLine
10
-260.59133630691451
20
59.645152581511198
30
0
11
-259.96281070736808
21
59.645152581511198
31
0
0
LWPOLYLINE
5
147
100
AcDbEntity
8
0
100
AcDbPolyline
90
4
70
1
43
0.0
10
-255.79240460251629
20
59.682112180075883
10
-256.65445465281113
20
59.682112180075883
10
-256.65445465281113
20
58.820798694189989
10
-255.79240460251629
20
58.820798694190046
42
0.99999999999999989
0
LWPOLYLINE
5
148
100
AcDbEntity
8
0
100
AcDbPolyline
90
3
70
1
43
0.0
10
-248.44000803074289
20
60.648044290282634
10
-248.77889056331378
20
59.62754575469986
10
-248.14255330064026
20
59.62754575469986
0
LINE
5
149
100
AcDbEntity
8
0
100
AcDbLine
10
-259.96025870777595
20
59.636507682892869
30
0
11
-260.26462780673279
21
60.667558005609187
31
0
0
LINE
5
150
100
AcDbEntity
8
0
100
AcDbLine
10
-256.1523527032258
20
65.459380126980122
30
0
11
-241.0243955383296
21
74.193510268422045
31
0
0
LINE
5
151
100
AcDbEntity
8
0
100
AcDbLine
10
-244.61935225261723
20
61.397995591112846
30
0
11
-243.79679256370153
21
61.398008717285208
31
0
0
LINE
5
152
100
AcDbEntity
8
0
100
AcDbLine
10
-240.98872867284001
20
86.90640999478326
30
0
11
-240.9754293743207
21
91.646738200982043
31
0
0
SPLINE
5
153
100
AcDbEntity
8
0
100
AcDbSpline
70
4
71
5
72
105
73
99
74
0
42
0.000000001
43
0.0000000001
44
0.0000000001
40
0
40
0
40
0
40
0
40
0
40
0
40
0.010526315789473684
40
0.021052631578947368
40
0.031578947368421047
40
0.042105263157894736
40
0.052631578947368418
40
0.063157894736842093
40
0.073684210526315769
40
0.084210526315789472
40
0.094736842105263161
40
0.10526315789473686
40
0.11578947368421055
40
0.12631578947368424
40
0.13684210526315793
40
0.14736842105263162
40
0.15789473684210534
40
0.168421052631579
40
0.17894736842105269
40
0.18947368421052641
40
0.20000000000000007
40
0.21052631578947376
40
0.22105263157894744
40
0.23157894736842119
40
0.2421052631578948
40
0.25263157894736848
40
0.26315789473684209
40
0.27368421052631581
40
0.28421052631578952
40
0.29473684210526313
40
0.30526315789473679
40
0.31578947368421045
40
0.32631578947368411
40
0.33684210526315778
40
0.34736842105263144
40
0.3578947368421051
40
0.36842105263157882
40
0.37894736842105242
40
0.38947368421052608
40
0.39999999999999969
40
0.41052631578947352
40
0.42105263157894712
40
0.43157894736842067
40
0.44210526315789439
40
0.45263157894736811
40
0.46315789473684171
40
0.47368421052631537
40
0.48421052631578898
40
0.4947368421052627
40
0.50526315789473641
40
0.51578947368421013
40
0.52631578947368385
40
0.53684210526315757
40
0.54736842105263128
40
0.557894736842105
40
0.56842105263157872
40
0.57894736842105243
40
0.58947368421052615
40
0.59999999999999987
40
0.61052631578947358
40
0.6210526315789473
40
0.63157894736842102
40
0.64210526315789473
40
0.65263157894736845
40
0.66315789473684217
40
0.67368421052631589
40
0.6842105263157896
40
0.69473684210526332
40
0.70526315789473704
40
0.71578947368421075
40
0.72631578947368447
40
0.73684210526315819
40
0.7473684210526319
40
0.75789473684210562
40
0.76842105263157945
40
0.77894736842105305
40
0.78947368421052655
40
0.80000000000000049
40
0.81052631578947421
40
0.82105263157894781
40
0.83157894736842164
40
0.84210526315789536
40
0.85263157894736896
40
0.8631578947368429
40
0.87368421052631651
40
0.88421052631579022
40
0.89473684210526383
40
0.90526315789473755
40
0.91578947368421115
40
0.9263157894736852
40
0.93684210526315881
40
0.94736842105263241
40
0.95789473684210624
40
0.96842105263157996
40
0.97894736842105379
40
0.983572571789881
40
0.983572571789881
40
0.983572571789881
40
0.983572571789881
40
0.983572571789881
40
0.983572571789881
41
1
41
1
41
1
41
1
41
1
41
1
41
1
41
1
41
1
41
1
41
1
41
1
41
1
41
1
41
1
41
1
41
1
41
1
41
1
41
1
41
1
41
1
41
1
41
1
41
1
41
1
41
1
41
1
41
1
41
1
41
1
41
1
41
1
41
1
41
1
41
1
41
1
41
1
41
1
41
1
41
1
41
1
41
1
41
1
41
1
41
1
41
1
41
1
41
1
41
1
41
1
41
1
41
1
41
1
41
1
41
1
41
1
41
1
41
1
41
1
41
1
41
1
41
1
41
1
41
1
41
1
41
1
41
1
41
1
41
1
41
1
41
1
41
1
41
1
41
1
41
1
41
1
41
1
41
1
41
1
41
1
41
1
41
1
41
1
41
1
41
1
41
1
41
1
41
1
41
1
41
1
41
1
41
1
41
1
41
1
41
1
41
1
41
1
41
1
10
-244.10008467473017
20
78.082718097322214
30
0
10
-244.10860788592944
20
78.059242784282986
30
0
10
-244.12754684050694
20
78.008543609017266
30
0
10
-244.16163267571307
20
77.921250343916341
30
0
10
-244.21843898710938
20
77.782356325195877
30
0
10
-244.30812255130144
20
77.572448408156973
30
0
10
-244.41572701823947
20
77.329748398721549
30
0
10
-244.53966552920318
20
77.061649368115951
30
0
10
-244.67760654433613
20
76.778576169049501
30
0
10
-244.82678588420154
20
76.491840234939005
30
0
10
-244.98424846705061
20
76.211826407189875
30
0
10
-245.1471199580163
20
75.946187954134402
30
0
10
-245.3128626688563
20
75.697657330381332
30
0
10
-245.47957455757111
20
75.464969956658521
30
0
10
-245.64631385276351
20
75.244584798348598
30
0
10
-245.81338238810258
20
75.032076922371019
30
0
10
-245.9827037969234
20
74.823788224221602
30
0
10
-246.15793407906079
20
74.618003597810343
30
0
10
-246.3433898270282
20
74.414196989137238
30
0
10
-246.54309008026726
20
74.212506292878018
30
0
10
-246.75985232505153
20
74.013178450124187
30
0
10
-246.99411594628813
20
73.815880246388559
30
0
10
-247.24448227563539
20
73.620012359390159
30
0
10
-247.50878049523254
20
73.425336662866385
30
0
10
-247.78500821998321
20
73.232533673815055
30
0
10
-248.07221026241359
20
73.04371135392725
30
0
10
-248.3716756224874
20
72.863135942871338
30
0
10
-248.68625644274911
20
72.696670380673055
30
0
10
-249.0189981378121
20
72.55073943924107
30
0
10
-249.37197310722698
20
72.431435659469102
30
0
10
-249.74507957697014
20
72.343599744849755
30
0
10
-250.13473386126719
20
72.289832060005608
30
0
10
-250.53296047010764
20
72.269765548100978
30
0
10
-250.92938541247375
20
72.281252970961106
30
0
10
-251.31288800568043
20
72.321327168411017
30
0
10
-251.67344864952977
20
72.387294152143838
30
0
10
-252.00376448195703
20
72.4776638935774
30
0
10
-252.30132574785895
20
72.593405892318941
30
0
10
-252.56914211167594
20
72.738250288416722
30
0
10
-252.81315410092225
20
72.916671855716487
30
0
10
-253.04019337695468
20
73.132228587882693
30
0
10
-253.25590727113001
20
73.385945012915968
30
0
10
-253.4622642077436
20
73.674228761137755
30
0
10
-253.65675418745616
20
73.988544773045192
30
0
10
-253.83445217317788
20
74.318036264316916
30
0
10
-253.98939000665635
20
74.651423308867649
30
0
10
-254.11625352639535
20
74.979266164895833
30
0
10
-254.21183033905845
20
75.295900630814899
30
0
10
-254.27685631225458
20
75.601970945377715
30
0
10
-254.31509613460327
20
75.902653397669312
30
0
10
-254.33191782933369
20
76.205092554728125
30
0
10
-254.33302504884409
20
76.516067897326124
30
0
10
-254.32316573333532
20
76.839663603598439
30
0
10
-254.30473810452821
20
77.174669588055608
30
0
10
-254.27820539152958
20
77.516205961485369
30
0
10
-254.2426754202755
20
77.85769406978342
30
0
10
-254.19643170196525
20
78.19279220285533
30
0
10
-254.13745655541067
20
78.517138560449411
30
0
10
-254.06402732243879
20
78.830701060840468
30
0
10
-253.97492332387009
20
79.137223880372105
30
0
10
-253.86942357386795
20
79.442219770104671
30
0
10
-253.74737867306646
20
79.75134259589764
30
0
10
-253.60923418419955
20
80.068771529866211
30
0
10
-253.45612007636393
20
80.395173407127459
30
0
10
-253.28972981911471
20
80.727537371811621
30
0
10
-253.1120105684418
20
81.06078383644217
30
0
10
-252.92490998931731
20
81.388859289174491
30
0
10
-252.73009058767991
20
81.706079970468792
30
0
10
-252.52867970179668
20
82.008277823891902
30
0
10
-252.32094668920649
20
82.294270348763263
30
0
10
-252.10646921158281
20
82.565283560125522
30
0
10
-251.884404038979
20
82.823942337074101
30
0
10
-251.65372890997872
20
83.073381458197559
30
0
10
-251.41348021527548
20
83.316370297573343
30
0
10
-251.16303166063662
20
83.554277131959367
30
0
10
-250.90221796525114
20
83.786643664308002
30
0
10
-250.63120501256091
20
84.011756412266266
30
0
10
-250.35042065196279
20
84.226982957661534
30
0
10
-250.06045912709865
20
84.429203767967778
30
0
10
-249.76200196610424
20
84.615199150135183
30
0
10
-249.4557186005822
20
84.782065178860364
30
0
10
-249.14245006778157
20
84.927361619743181
30
0
10
-248.82339608096794
20
85.049240174433507
30
0
10
-248.50032431109929
20
85.146595756674586
30
0
10
-248.17571816200982
20
85.219173124084932
30
0
10
-247.8530825336716
20
85.267781993889287
30
0
10
-247.53659121765483
20
85.294065878806364
30
0
10
-247.23031913003371
20
85.299987704677733
30
0
10
-246.93756193173132
20
85.287379503965866
30
0
10
-246.66019984787769
20
85.257511543145057
30
0
10
-246.39783666207978
20
85.210536537118202
30
0
10
-246.14819439777318
20
85.145644174012148
30
0
10
-245.90808103106255
20
85.061537519118886
30
0
10
-245.67411234032227
20
84.95677663664739
30
0
10
-245.46951359884042
20
84.84443119624693
30
0
10
-245.31220452970723
20
84.744143093141062
30
0
10
-245.20105056618354
20
84.666272322382554
30
0
10
-245.13558853413917
20
84.617968847679208
30
0
10
-245.11561665491573
20
84.603003958867021
30
0
0
LINE
5
154
100
AcDbEntity
8
0
100
AcDbLine
10
-256.24393758251603
20
63.36804399513624
30
0
11
-256.1523527032258
21
65.459380126980122
31
0
0
LWPOLYLINE
5
155
100
AcDbEntity
8
0
100
AcDbPolyline
90
4
70
1
43
0.0
10
-244.61931116028921
20
58.822919606958031
10
-243.76259154787405
20
58.822933278244733
42
0.99999999999999989
10
-243.76260511474692
20
59.673109735731266
10
-244.61932472716205
20
59.673096064442525
0
LINE
5
156
100
AcDbEntity
8
0
100
AcDbLine
10
-244.61933857975316
20
60.541177129908654
30
0
11
-244.61935225261723
21
61.397995591112846
31
0
0
ARC
5
157
100
AcDbEntity
8
0
100
AcDbCircle
10
-243.83579511824883
20
60.969598864182394
30
0
40
0.43018159130395939
210
0
220
0
230
1
100
AcDbArc
50
-95.201883997175671
51
95.203712616479052
0
LINE
5
158
100
AcDbEntity
8
0
100
AcDbLine
10
-244.61933857975316
20
60.541177129908654
30
0
11
-243.79677889083723
21
60.541190256081016
31
0
0
LWPOLYLINE
5
159
100
AcDbEntity
8
0
100
AcDbPolyline
90
4
70
1
43
0.0
10
-257.39907263766474
20
14.933453167724034
10
-254.39907263766474
20
14.933453167724034
10
-254.39907263766474
20
13.733453167724024
10
-257.39907263766474
20
13.733453167724024
0
LWPOLYLINE
5
160
100
AcDbEntity
8
0
100
AcDbPolyline
90
4
70
1
43
0.0
10
-262.89907263766474
20
25.994376232020677
10
-262.89907263766474
20
15.994376232020693
10
-265.89907263766474
20
15.994376232020688
10
-265.89907263766474
20
25.994376232020674
0
LWPOLYLINE
5
161
100
AcDbEntity
8
0
100
AcDbPolyline
90
14
70
1
43
0.0
10
-296.39901754271966
20
18.494376232020656
10
-296.39901754271966
20
13.494376232020658
10
-218.39901754271972
20
13.494376232020697
10
-218.39901754271972
20
16.494376232020699
10
-215.39901754271969
20
16.494376232020699
10
-215.39901754271969
20
20.494376232020684
10
-218.39901754271972
20
20.494376232020677
10
-218.39901754271972
20
23.494376232020681
10
-215.39901754271969
20
23.494376232020681
10
-215.39901754271969
20
28.494376232020677
10
-296.39901754271966
20
28.494376232020638
10
-296.39901754271966
20
23.494376232020642
10
-293.3990175427196
20
23.494376232020642
10
-293.3990175427196
20
18.494376232020656
0
CIRCLE
5
162
100
AcDbEntity
8
0
100
AcDbCircle
10
-255.89907263766474
20
20.333453167724016
30
0
40
3.0000000000000009
210
0
220
0
230
1
0
LWPOLYLINE
5
163
100
AcDbEntity
8
0
100
AcDbPolyline
90
20
70
1
43
0.0
10
-149.20884688749294
20
197.45095839946475
10
-153.85884688749294
20
197.45095839946475
10
-153.85884688749294
20
194.45095839946475
10
-156.85884688749294
20
194.45095839946475
10
-156.85884688749294
20
197.45095839946475
10
-161.50884688749295
20
197.45095839946475
10
-161.50884688749295
20
166.95095839946475
10
-160.50884688749295
20
166.95095839946475
10
-160.50884688749292
20
163.95095839946475
10
-161.50884688749295
20
163.95095839946475
10
-161.50884688749295
20
119.45095839946475
10
-159.35884688749294
20
119.45095839946474
10
-159.35884688749294
20
116.45095839946475
10
-151.35884688749294
20
116.45095839946475
10
-151.35884688749294
20
119.45095839946475
10
-149.20884688749294
20
119.45095839946475
10
-149.20884688749294
20
163.95095839946475
10
-150.20884688749294
20
163.95095839946475
10
-150.20884688749294
20
166.95095839946475
10
-149.20884688749294
20
166.95095839946475
0
ARC
5
164
100
AcDbEntity
8
0
100
AcDbCircle
10
-181.71982958436041
20
103.33792577491018
30
0
40
29.999999999999964
210
0
220
0
230
1
100
AcDbArc
50
183.60522170429846
51
196.73896709172132
0
CIRCLE
5
165
100
AcDbEntity
8
0
100
AcDbCircle
10
-181.71982958436041
20
103.33792577491018
30
0
40
3.5000000000000004
210
0
220
0
230
1
0
ARC
5
166
100
AcDbEntity
8
0
100
AcDbCircle
10
-202.78762002675265
20
97.001664584315023
30
0
40
8.0000000000000107
210
0
220
0
230
1
100
AcDbArc
50
196.73896709172126
51
325.58816179080941
0
SPLINE
5
167
100
AcDbEntity
8
0
100
AcDbSpline
70
4
71
5
72
21
73
15
74
0
42
0.000000001
43
0.0000000001
44
0.0000000001
40
-1
40
-1
40
-1
40
-1
40
-1
40
-1
40
-0.8999999999999998
40
-0.79999999999999982
40
-0.69999999999999996
40
-0.59999999999999998
40
-0.5
40
-0.40000000000000002
40
-0.30000000000000004
40
-0.20000000000000001
40
-0.10000000000000001
40
0
40
0
40
0
40
0
40
0
40
0
41
1
41
1
41
1
41
1
41
1
41
1
41
1
41
1
41
1
41
1
41
1
41
1
41
1
41
1
41
1
10
-211.66045963869158
20
101.4514815139585
30
0
10
-211.64868113856079
20
101.68110840611445
30
0
10
-211.61975994471433
20
102.13739111777983
30
0
10
-211.56028626771524
20
102.81290235201595
30
0
10
-211.44826876894328
20
103.69546173844552
30
0
10
-211.24997590016113
20
104.76638634202139
30
0
10
-210.98805929379949
20
105.80207158604065
30
0
10
-210.65709581027113
20
106.7995137493525
30
0
10
-210.253714392734
20
107.7568457004579
30
0
10
-209.78023913659604
20
108.67535468899996
30
0
10
-209.24173782743154
20
109.55784761574655
30
0
10
-208.76307059668349
20
110.23733025391451
30
0
10
-208.37884016722887
20
110.73296805715621
30
0
10
-208.11165547864869
20
111.05728346728245
30
0
10
-207.97530532163114
20
111.21791369914047
30
0
0
LINE
5
168
100
AcDbEntity
8
0
100
AcDbLine
10
-209.46959736876877
20
111.08718008501896
30
0
11
-209.73106459701177
21
114.07576417929421
31
0
0
ARC
5
169
100
AcDbEntity
8
0
100
AcDbCircle
10
-201.12500484493069
20
80.480403674735825
30
0
40
3.0831589549193863
210
0
220
0
230
1
100
AcDbArc
50
233.2109462294901
51
314.47127594416128
0
ARC
5
170
100
AcDbEntity
8
0
100
AcDbCircle
10
-181.71982958436041
20
103.33792577491018
30
0
40
33.061602655891164
210
0
220
0
230
1
100
AcDbArc
50
167.14258203443748
51
229.99999999999997
0
LINE
5
171
100
AcDbEntity
8
0
100
AcDbLine
10
-209.73106459701177
20
114.07576417929421
30
0
11
-212.71964869128703
21
113.81429695105125
31
0
0
LINE
5
172
100
AcDbEntity
8
0
100
AcDbLine
10
-212.45818146304401
20
110.82571285677602
30
0
11
-213.95247351018162
21
110.6949792426545
31
0
0
LINE
5
173
100
AcDbEntity
8
0
100
AcDbLine
10
-207.97530532163114
20
111.21791369914047
30
0
11
-209.46959736876877
21
111.08718008501896
31
0
0
LINE
5
174
100
AcDbEntity
8
0
100
AcDbLine
10
-186.50481417544185
20
106.61571809034342
30
0
11
-196.18764602996555
21
92.480564801990667
31
0
0
LINE
5
175
100
AcDbEntity
8
0
100
AcDbLine
10
-212.71964869128703
20
113.81429695105125
30
0
11
-212.45818146304401
21
110.82571285677602
31
0
0
ARC
5
176
100
AcDbEntity
8
0
100
AcDbCircle
10
-181.71982958436041
20
103.33792577491018
30
0
40
5.7999999999999519
210
0
220
0
230
1
100
AcDbArc
50
-45.528768490151805
51
145.58822198155164
0
CIRCLE
5
177
100
AcDbEntity
8
0
100
AcDbCircle
10
-191.23308620772121
20
92.000468016749352
30
0
40
0.40000000000000041
210
0
220
0
230
1
0
LINE
5
178
100
AcDbEntity
8
0
100
AcDbLine
10
-198.96509289721627
20
78.280256061637942
30
0
11
-177.65663349763662
21
99.19903249761586
31
0
0
LWPOLYLINE
5
179
100
AcDbEntity
8
0
100
AcDbPolyline
90
20
70
1
43
0.0
10
-150.45681691535532
20
92.460088383588186
10
-160.20681691535532
20
92.460088383588186
10
-160.20681691535532
20
89.460088383588186
10
-169.95681691535532
20
89.460088383588186
10
-169.95681691535532
20
80.888659812159673
10
-172.95681691535526
20
80.888659812159673
10
-172.95681691535526
20
69.317231240731132
10
-169.95681691535532
20
69.317231240731132
10
-169.95681691535532
20
57.745802669302577
10
-172.95681691535526
20
57.745802669302577
10
-172.95681691535526
20
46.174374097874079
10
-169.95681691535532
20
46.174374097874079
10
-169.95681691535532
20
34.602945526445524
10
-172.95681691535526
20
34.602945526445524
10
-172.95681691535526
20
23.031516955016968
10
-169.95681691535532
20
23.031516955016986
10
-169.95681691535532
20
14.460088383588413
10
-160.20681691535529
20
14.460088383588406
10
-160.20681691535529
20
11.46008838358842
10
-150.45681691535532
20
11.46008838358842
0
LWPOLYLINE
5
180
100
AcDbEntity
8
0
100
AcDbPolyline
90
8
70
1
43
0.0
10
-132.91233372636526
20
119.64842678328472
10
-131.37626440977147
20
121.85987225053438
10
-131.37626440977147
20
125.85987225053437
10
-128.37626440977147
20
125.85987225053437
10
-128.37626440977147
20
128.85987225053435
10
-131.37626440977147
20
128.85987225053435
10
-131.37626440977147
20
131.35987225053435
10
-137.74111279756156
20
123.20581160565048
42
1.0282403735374788
0
CIRCLE
5
181
100
AcDbEntity
8
0
100
AcDbCircle
10
-135.37626440977141
20
121.35987225053438
30
0
40
0.40000000000000041
210
0
220
0
230
1
0
LWPOLYLINE
5
182
100
AcDbEntity
8
0
100
AcDbPolyline
90
8
70
1
43
0.0
10
-118.37626440977152
20
128.85987225053435
10
-121.37626440977152
20
128.85987225053435
10
-121.37626440977152
20
131.35987225053435
10
-127.74111279756157
20
123.20581160565047
42
1.0282403735374748
10
-122.91233372636533
20
119.64842678328472
10
-121.37626440977152
20
121.85987225053438
10
-121.37626440977152
20
125.85987225053437
10
-118.37626440977152
20
125.85987225053437
0
CIRCLE
5
183
100
AcDbEntity
8
0
100
AcDbCircle
10
-125.37626440977147
20
121.35987225053438
30
0
40
0.40000000000000041
210
0
220
0
230
1
0
LWPOLYLINE
5
184
100
AcDbEntity
8
0
100
AcDbPolyline
90
8
70
1
43
0.0
10
-102.46867049481885
20
119.32592859054886
10
-100.93260117822507
20
121.53737405779853
10
-100.93260117822507
20
125.5373740577985
10
-97.932601178225056
20
125.53737405779849
10
-97.932601178225056
20
128.53737405779847
10
-100.93260117822507
20
128.5373740577985
10
-100.93260117822507
20
131.03737405779847
10
-107.2974495660151
20
122.88331341291462
42
1.0282403735374697
0
LWPOLYLINE
5
185
100
AcDbEntity
8
0
100
AcDbPolyline
90
8
70
1
43
0.0
10
-110.93260117822499
20
121.53737405779853
10
-110.93260117822499
20
125.5373740577985
10
-107.93260117822499
20
125.5373740577985
10
-107.93260117822499
20
128.5373740577985
10
-110.93260117822499
20
128.5373740577985
10
-110.93260117822499
20
131.03737405779847
10
-117.29744956601509
20
122.88331341291465
42
1.0282403735374737
10
-112.46867049481878
20
119.32592859054886
0
CIRCLE
5
186
100
AcDbEntity
8
0
100
AcDbCircle
10
-114.93260117822494
20
121.03737405779853
30
0
40
0.40000000000000041
210
0
220
0
230
1
0
CIRCLE
5
187
100
AcDbEntity
8
0
100
AcDbCircle
10
-104.93260117822499
20
121.03737405779853
30
0
40
0.40000000000000041
210
0
220
0
230
1
0
LWPOLYLINE
5
188
100
AcDbEntity
8
0
100
AcDbPolyline
90
8
70
1
43
0.0
10
-207.51648143308617
20
104.84619244023702
42
-0.41421356237309503
10
-207.01648143308617
20
105.34619244023702
10
-198.01648143308623
20
105.34619244023703
42
-0.41421356237311585
10
-197.51648143308617
20
104.84619244023703
10
-197.5164814330862
20
99.846192440237061
42
-0.41421356237307422
10
-198.0164814330862
20
99.346192440237061
10
-207.01648143308617
20
99.346192440237104
42
-0.41421356237307422
10
-207.51648143308614
20
99.846192440237047
0
LWPOLYLINE
5
189
100
AcDbEntity
8
0
100
AcDbPolyline
90
4
70
1
43
0.0
10
-201.0164814330862
20
103.84619244023702
10
-201.0164814330862
20
100.84619244023706
10
-204.01648143308614
20
100.84619244023706
10
-204.01648143308614
20
103.84619244023702
0
LWPOLYLINE
5
190
100
AcDbEntity
8
0
100
AcDbPolyline
90
12
70
1
43
0.0
10
-293.29223947054464
20
50.362231632218226
10
-293.29223947054464
20
45.362231632218226
10
-296.29223947054464
20
45.362231632218226
10
-296.29223947054464
20
33.362231632218261
10
-293.29223947054464
20
33.362231632218268
10
-293.29223947054464
20
30.362231632218265
10
-218.29223947054476
20
30.362231632218265
10
-218.29223947054476
20
33.362231632218254
10
-215.29223947054479
20
33.362231632218254
10
-215.29223947054479
20
45.36223163221824
10
-218.29223947054476
20
45.36223163221824
10
-218.29223947054476
20
50.362231632218226
0
CIRCLE
5
191
100
AcDbEntity
8
0
100
AcDbCircle
10
-225.79223947054476
20
40.362231632218254
30
0
40
1.25
210
0
220
0
230
1
0
CIRCLE
5
192
100
AcDbEntity
8
0
100
AcDbCircle
10
-285.79223947054464
20
40.362231632218254
30
0
40
1.25
210
0
220
0
230
1
0
LWPOLYLINE
5
193
100
AcDbEntity
8
0
100
AcDbPolyline
90
33
70
1
43
0.0
10
-19.542490530359558
20
117.03221080457298
10
-19.542490530359558
20
120.03221080457295
10
-12.942490530359594
20
120.03221080457295
10
-12.942490530359594
20
195.0322108045728
10
-19.542490530359579
20
195.0322108045728
10
-19.542490530359579
20
198.03221080457277
10
-32.142490530359559
20
198.03221080457277
10
-32.142490530359538
20
195.0322108045728
10
-41.742490530359518
20
195.0322108045728
10
-41.742490530359518
20
198.03221080457277
10
-51.342490530359512
20
198.03221080457277
10
-51.342490530359512
20
195.0322108045728
10
-57.942490530359478
20
195.0322108045728
10
-57.942490530359478
20
186.46078223314422
10
-60.942490530359464
20
186.46078223314422
10
-60.942490530359464
20
174.88935366171569
10
-57.942490530359478
20
174.88935366171569
10
-57.942490530359478
20
172.88935366171569
10
-57.942490530359478
20
163.31792509028713
10
-60.942490530359464
20
163.31792509028713
10
-60.942490530359464
20
151.74649651885858
10
-57.942490530359464
20
151.74649651885858
10
-57.942490530359464
20
140.17506794743005
10
-60.942490530359464
20
140.17506794743005
10
-60.942490530359464
20
128.6036393760015
10
-57.942490530359464
20
128.60363937600147
10
-57.942490530359464
20
120.03221080457293
10
-51.342490530359498
20
120.03221080457297
10
-51.342490530359498
20
117.032210804573
10
-41.742490530359518
20
117.03221080457298
10
-41.742490530359518
20
120.03221080457295
10
-32.142490530359524
20
120.03221080457295
10
-32.142490530359524
20
117.032210804573
0
LWPOLYLINE
5
194
100
AcDbEntity
8
0
100
AcDbPolyline
90
4
70
1
43
0.0
10
-20.442490530359592
20
174.53221080457286
10
-20.442490530359578
20
177.53221080457283
10
-17.442490530359578
20
177.53221080457286
10
-17.442490530359596
20
174.53221080457286
0
LWPOLYLINE
5
195
100
AcDbEntity
8
0
100
AcDbPolyline
90
4
70
1
43
0.0
10
-20.442490530359557
20
137.53221080457291
10
-20.442490530359557
20
140.53221080457294
10
-17.44249053035956
20
140.53221080457294
10
-17.44249053035956
20
137.53221080457291
0
CIRCLE
5
196
100
AcDbEntity
8
0
100
AcDbCircle
10
-22.942490530359592
20
127.53221080457294
30
0
40
1.8000000000000018
210
0
220
0
230
1
0
CIRCLE
5
197
100
AcDbEntity
8
0
100
AcDbCircle
10
-22.942490530359578
20
187.5322108045728
30
0
40
1.8000000000000018
210
0
220
0
230
1
0
LWPOLYLINE
5
198
100
AcDbEntity
8
0
100
AcDbPolyline
90
53
70
1
43
0.0
10
-71.128721981736987
20
70.599575249941765
10
-71.128721981736987
20
67.599575249941765
10
-57.350944203959259
20
67.599575249941779
10
-57.350944203959259
20
70.599575249941779
10
-43.573166426181544
20
70.599575249941779
10
-43.573166426181544
20
67.599575249941779
10
-29.795388648403822
20
67.599575249941779
10
-29.795388648403822
20
70.599575249941779
10
-13.017610870626131
20
70.599575249941779
10
-13.017609902050662
20
77.199575249941773
10
-16.017609946754121
20
77.199575249941773
10
-16.017609946754121
20
86.799575249941739
10
-13.017609902050662
20
86.799575249941739
10
-13.017609902050671
20
96.399575249941677
10
-16.017609946754128
20
96.399575249941677
10
-16.017610870626129
20
98.599575249941694
10
-19.017610870626118
20
98.599575249941665
10
-19.017610870626118
20
110.59957524994161
10
-16.017610870626129
20
110.59957524994161
10
-16.017609946754128
20
108.99957524994163
10
-13.017609902050671
20
108.99957524994163
10
-13.017610870626157
20
115.59957524994159
10
-73.017610870625887
20
115.59957524994158
10
-73.017610870625887
20
124.59957524994154
10
-78.017610870625859
20
124.59957524994154
10
-78.017610870625859
20
127.59957524994151
10
-81.017610870625845
20
127.59957524994151
10
-81.017610870625845
20
124.59957524994154
10
-85.01761087062583
20
124.59957524994154
10
-85.01761087062583
20
127.59957524994151
10
-88.8517660903468
20
127.59957524994149
10
-89.586320008222856
20
127.13997230264249
10
-87.99506172930873
20
124.59676623749813
10
-90.538267794453105
20
123.00550795858399
10
-92.129526073367245
20
125.54871402372837
10
-98.063673558704124
20
121.8357780395954
10
-96.472415279790027
20
119.29257197445104
10
-130.3632230236413
20
98.087436794644674
10
-131.95448130255545
20
100.63064285978909
10
-143.01761087062556
20
93.708554729705952
10
-143.01761087062556
20
90.099575249941637
10
-140.01761087062559
20
90.099575249941637
10
-140.01761087062559
20
80.34957524994168
10
-143.01761087062556
20
80.34957524994168
10
-143.01761087062556
20
70.599575249941736
10
-131.23983309284785
20
70.599575249941751
10
-131.23983309284785
20
67.599575249941751
10
-112.46205531507013
20
67.599575249941751
10
-112.46205531507015
20
70.599575249941751
10
-98.684277537292417
20
70.599575249941765
10
-98.684277537292417
20
67.599575249941765
10
-84.906499759514702
20
67.599575249941765
10
-84.906499759514702
20
70.599575249941765
0
LWPOLYLINE
5
199
100
AcDbEntity
8
0
100
AcDbPolyline
90
6
70
1
43
0.0
10
-64.017610870625916
20
90.599119706869104
10
-64.017610870625901
20
87.599119706869118
10
-72.017610870625873
20
87.599119706869132
10
-72.017610870625873
20
90.599119706869118
10
-64.017610870625901
20
90.599119706869118
10
-64.017610870625901
20
87.599119706869118
0
CIRCLE
5
200
100
AcDbEntity
8
0
100
AcDbCircle
10
-41.30797800136321
20
94.321795788643911
30
0
40
0.77999999999999847
210
0
220
0
230
1
0
CIRCLE
5
201
100
AcDbEntity
8
0
100
AcDbCircle
10
-47.503206001363196
20
103.77695578864387
30
0
40
0.77999999999999847
210
0
220
0
230
1
0
CIRCLE
5
202
100
AcDbEntity
8
0
100
AcDbCircle
10
-43.062354001363218
20
86.915695788643944
30
0
40
0.77999999999999847
210
0
220
0
230
1
0
CIRCLE
5
203
100
AcDbEntity
8
0
100
AcDbCircle
10
-36.549042001363247
20
86.652991788643945
30
0
40
0.78000000000000291
210
0
220
0
230
1
0
CIRCLE
5
204
100
AcDbEntity
8
0
100
AcDbCircle
10
-43.658898001363212
20
105.12027178864385
30
0
40
0.77999999999999847
210
0
220
0
230
1
0
CIRCLE
5
205
100
AcDbEntity
8
0
100
AcDbCircle
10
-32.238450001363276
20
100.25759578864387
30
0
40
0.78000000000000291
210
0
220
0
230
1
0
CIRCLE
5
206
100
AcDbEntity
8
0
100
AcDbCircle
10
-34.933194001363262
20
92.326087788643903
30
0
40
0.78000000000000291
210
0
220
0
230
1
0
CIRCLE
5
207
100
AcDbEntity
8
0
100
AcDbCircle
10
-50.781390001363178
20
95.591947788643893
30
0
40
0.77999999999999847
210
0
220
0
230
1
0
CIRCLE
5
208
100
AcDbEntity
8
0
100
AcDbCircle
10
-41.842746001363231
20
103.03299178864386
30
0
40
0.77999999999999847
210
0
220
0
230
1
0
CIRCLE
5
209
100
AcDbEntity
8
0
100
AcDbCircle
10
-44.621262001363213
20
108.04745578864384
30
0
40
0.77999999999999847
210
0
220
0
230
1
0
CIRCLE
5
210
100
AcDbEntity
8
0
100
AcDbCircle
10
-36.714558001363251
20
103.63015978864385
30
0
40
0.78000000000000291
210
0
220
0
230
1
0
CIRCLE
5
211
100
AcDbEntity
8
0
100
AcDbCircle
10
-50.359566001363177
20
103.42330378864386
30
0
40
0.77999999999999847
210
0
220
0
230
1
0
CIRCLE
5
212
100
AcDbEntity
8
0
100
AcDbCircle
10
-50.791374001363181
20
92.78909578864392
30
0
40
0.77999999999999847
210
0
220
0
230
1
0
CIRCLE
5
213
100
AcDbEntity
8
0
100
AcDbCircle
10
-34.27877400136326
20
102.35829178864385
30
0
40
0.78000000000000291
210
0
220
0
230
1
0
CIRCLE
5
214
100
AcDbEntity
8
0
100
AcDbCircle
10
-53.204382001363172
20
96.686131788643891
30
0
40
0.77999999999999847
210
0
220
0
230
1
0
CIRCLE
5
215
100
AcDbEntity
8
0
100
AcDbCircle
10
-55.143774001363148
20
88.359007788643922
30
0
40
0.77999999999999847
210
0
220
0
230
1
0
CIRCLE
5
216
100
AcDbEntity
8
0
100
AcDbCircle
10
-53.213586001363154
20
104.31780778864385
30
0
40
0.77999999999999847
210
0
220
0
230
1
0
CIRCLE
5
217
100
AcDbEntity
8
0
100
AcDbCircle
10
-46.668918001363195
20
87.89475178864393
30
0
40
0.77999999999999847
210
0
220
0
230
1
0
CIRCLE
5
218
100
AcDbEntity
8
0
100
AcDbCircle
10
-38.749110001363242
20
106.80881578864384
30
0
40
0.77999999999999847
210
0
220
0
230
1
0
CIRCLE
5
219
100
AcDbEntity
8
0
100
AcDbCircle
10
-58.194666001363146
20
100.16524378864388
30
0
40
0.7800000000000008
210
0
220
0
230
1
0
CIRCLE
5
220
100
AcDbEntity
8
0
100
AcDbCircle
10
-52.01519400136317
20
89.996227788643935
30
0
40
0.77999999999999847
210
0
220
0
230
1
0
CIRCLE
5
221
100
AcDbEntity
8
0
100
AcDbCircle
10
-39.104790001363241
20
109.44474778864382
30
0
40
0.77999999999999847
210
0
220
0
230
1
0
CIRCLE
5
222
100
AcDbEntity
8
0
100
AcDbCircle
10
-38.806050001363225
20
95.028163788643923
30
0
40
0.77999999999999847
210
0
220
0
230
1
0
CIRCLE
5
223
100
AcDbEntity
8
0
100
AcDbCircle
10
-49.916682001363171
20
105.99683578864386
30
0
40
0.77999999999999847
210
0
220
0
230
1
0
CIRCLE
5
224
100
AcDbEntity
8
0
100
AcDbCircle
10
-43.94016600136321
20
95.928907788643897
30
0
40
0.77999999999999847
210
0
220
0
230
1
0
CIRCLE
5
225
100
AcDbEntity
8
0
100
AcDbCircle
10
-32.960574001363256
20
107.38975978864386
30
0
40
0.78000000000000291
210
0
220
0
230
1
0
CIRCLE
5
226
100
AcDbEntity
8
0
100
AcDbCircle
10
-55.818318001363153
20
101.29499578864389
30
0
40
0.77999999999999847
210
0
220
0
230
1
0
CIRCLE
5
227
100
AcDbEntity
8
0
100
AcDbCircle
10
-54.653466001363157
20
90.93487978864394
30
0
40
0.77999999999999847
210
0
220
0
230
1
0
CIRCLE
5
228
100
AcDbEntity
8
0
100
AcDbCircle
10
-48.090390001363197
20
93.511375788643903
30
0
40
0.77999999999999847
210
0
220
0
230
1
0
CIRCLE
5
229
100
AcDbEntity
8
0
100
AcDbCircle
10
-48.494898001363183
20
108.31951978864383
30
0
40
0.77999999999999847
210
0
220
0
230
1
0
CIRCLE
5
230
100
AcDbEntity
8
0
100
AcDbCircle
10
-45.123270001363203
20
102.68589178864386
30
0
40
0.77999999999999847
210
0
220
0
230
1
0
CIRCLE
5
231
100
AcDbEntity
8
0
100
AcDbCircle
10
-53.331834001363148
20
93.373627788643915
30
0
40
0.77999999999999847
210
0
220
0
230
1
0
CIRCLE
5
232
100
AcDbEntity
8
0
100
AcDbCircle
10
-50.819922001363182
20
109.57765978864381
30
0
40
0.77999999999999847
210
0
220
0
230
1
0
CIRCLE
5
233
100
AcDbEntity
8
0
100
AcDbCircle
10
-51.816606001363169
20
99.341095788643884
30
0
40
0.77999999999999847
210
0
220
0
230
1
0
CIRCLE
5
234
100
AcDbEntity
8
0
100
AcDbCircle
10
-44.096166001363208
20
100.01049178864389
30
0
40
0.77999999999999847
210
0
220
0
230
1
0
CIRCLE
5
235
100
AcDbEntity
8
0
100
AcDbCircle
10
-55.065774001363167
20
107.26807978864383
30
0
40
0.77999999999999847
210
0
220
0
230
1
0
CIRCLE
5
236
100
AcDbEntity
8
0
100
AcDbCircle
10
-46.530234001363198
20
106.22209978864385
30
0
40
0.77999999999999847
210
0
220
0
230
1
0
CIRCLE
5
237
100
AcDbEntity
8
0
100
AcDbCircle
10
-30.946302001363275
20
102.52583578864386
30
0
40
0.78000000000000291
210
0
220
0
230
1
0
CIRCLE
5
238
100
AcDbEntity
8
0
100
AcDbCircle
10
-34.175190001363262
20
98.404939788643887
30
0
40
0.78000000000000291
210
0
220
0
230
1
0
CIRCLE
5
239
100
AcDbEntity
8
0
100
AcDbCircle
10
-41.539482001363233
20
96.998599788643887
30
0
40
0.77999999999999847
210
0
220
0
230
1
0
CIRCLE
5
240
100
AcDbEntity
8
0
100
AcDbCircle
10
-49.305162001363179
20
87.165139788643955
30
0
40
0.77999999999999847
210
0
220
0
230
1
0
CIRCLE
5
241
100
AcDbEntity
8
0
100
AcDbCircle
10
-33.269766001363266
20
104.79235978864384
30
0
40
0.78000000000000291
210
0
220
0
230
1
0
CIRCLE
5
242
100
AcDbEntity
8
0
100
AcDbCircle
10
-32.35903800136326
20
92.949931788643909
30
0
40
0.78000000000000291
210
0
220
0
230
1
0
CIRCLE
5
243
100
AcDbEntity
8
0
100
AcDbCircle
10
-60.168222001363119
20
98.446591788643886
30
0
40
0.7800000000000008
210
0
220
0
230
1
0
CIRCLE
5
244
100
AcDbEntity
8
0
100
AcDbCircle
10
-41.576298001363234
20
100.46242378864386
30
0
40
0.77999999999999847
210
0
220
0
230
1
0
CIRCLE
5
245
100
AcDbEntity
8
0
100
AcDbCircle
10
-45.334650001363201
20
113.19358378864382
30
0
40
0.77999999999999847
210
0
220
0
230
1
0
CIRCLE
5
246
100
AcDbEntity
8
0
100
AcDbCircle
10
-43.427082001363218
20
111.39693178864383
30
0
40
0.77999999999999847
210
0
220
0
230
1
0
CIRCLE
5
247
100
AcDbEntity
8
0
100
AcDbCircle
10
-48.398958001363184
20
111.69395578864382
30
0
40
0.77999999999999847
210
0
220
0
230
1
0
CIRCLE
5
248
100
AcDbEntity
8
0
100
AcDbCircle
10
-58.36501800136314
20
103.42189978864386
30
0
40
0.7800000000000008
210
0
220
0
230
1
0
CIRCLE
5
249
100
AcDbEntity
8
0
100
AcDbCircle
10
-46.2714300013632
20
110.17997578864384
30
0
40
0.77999999999999847
210
0
220
0
230
1
0
CIRCLE
5
250
100
AcDbEntity
8
0
100
AcDbCircle
10
-49.557102001363177
20
100.81794778864386
30
0
40
0.77999999999999847
210
0
220
0
230
1
0
CIRCLE
5
251
100
AcDbEntity
8
0
100
AcDbCircle
10
-37.956162001363232
20
89.946775788643919
30
0
40
0.77999999999999847
210
0
220
0
230
1
0
CIRCLE
5
252
100
AcDbEntity
8
0
100
AcDbCircle
10
-44.576646001363201
20
89.464267788643923
30
0
40
0.77999999999999847
210
0
220
0
230
1
0
CIRCLE
5
253
100
AcDbEntity
8
0
100
AcDbCircle
10
-57.032778001363141
20
92.742451788643919
30
0
40
0.77999999999999847
210
0
220
0
230
1
0
CIRCLE
5
254
100
AcDbEntity
8
0
100
AcDbCircle
10
-40.164498001363228
20
111.83092378864382
30
0
40
0.77999999999999847
210
0
220
0
230
1
0
CIRCLE
5
255
100
AcDbEntity
8
0
100
AcDbCircle
10
-52.457766001363169
20
107.04281578864382
30
0
40
0.77999999999999847
210
0
220
0
230
1
0
CIRCLE
5
256
100
AcDbEntity
8
0
100
AcDbCircle
10
-54.901194001363152
20
98.6911997886439
30
0
40
0.77999999999999847
210
0
220
0
230
1
0
CIRCLE
5
257
100
AcDbEntity
8
0
100
AcDbCircle
10
-35.949222001363246
20
106.24581178864383
30
0
40
0.78000000000000291
210
0
220
0
230
1
0
CIRCLE
5
258
100
AcDbEntity
8
0
100
AcDbCircle
10
-42.063486001363223
20
109.15411978864384
30
0
40
0.77999999999999847
210
0
220
0
230
1
0
CIRCLE
5
259
100
AcDbEntity
8
0
100
AcDbCircle
10
-40.655742001363215
20
91.502095788643913
30
0
40
0.77999999999999847
210
0
220
0
230
1
0
CIRCLE
5
260
100
AcDbEntity
8
0
100
AcDbCircle
10
-41.028894001363227
20
85.191427788643935
30
0
40
0.77999999999999847
210
0
220
0
230
1
0
CIRCLE
5
261
100
AcDbEntity
8
0
100
AcDbCircle
10
-55.535490001363151
20
94.933627788643918
30
0
40
0.77999999999999847
210
0
220
0
230
1
0
CIRCLE
5
262
100
AcDbEntity
8
0
100
AcDbCircle
10
-45.813570001363203
20
98.041927788643889
30
0
40
0.77999999999999847
210
0
220
0
230
1
0
CIRCLE
5
263
100
AcDbEntity
8
0
100
AcDbCircle
10
-51.652182001363158
20
84.766327788643963
30
0
40
0.77999999999999847
210
0
220
0
230
1
0
CIRCLE
5
264
100
AcDbEntity
8
0
100
AcDbCircle
10
-55.88524200136316
20
104.23762378864387
30
0
40
0.77999999999999847
210
0
220
0
230
1
0
CIRCLE
5
265
100
AcDbEntity
8
0
100
AcDbCircle
10
-41.375058001363215
20
88.995799788643936
30
0
40
0.77999999999999847
210
0
220
0
230
1
0
CIRCLE
5
266
100
AcDbEntity
8
0
100
AcDbCircle
10
-30.789834001363275
20
97.489531788643887
30
0
40
0.78000000000000291
210
0
220
0
230
1
0
CIRCLE
5
267
100
AcDbEntity
8
0
100
AcDbCircle
10
-39.318666001363233
20
103.92484378864384
30
0
40
0.77999999999999847
210
0
220
0
230
1
0
CIRCLE
5
268
100
AcDbEntity
8
0
100
AcDbCircle
10
-35.29417800136325
20
89.464111788643933
30
0
40
0.78000000000000291
210
0
220
0
230
1
0
CIRCLE
5
269
100
AcDbEntity
8
0
100
AcDbCircle
10
-58.93285800136313
20
95.298667788643897
30
0
40
0.7800000000000008
210
0
220
0
230
1
0
CIRCLE
5
270
100
AcDbEntity
8
0
100
AcDbCircle
10
-47.279814001363192
20
96.127027788643886
30
0
40
0.77999999999999847
210
0
220
0
230
1
0
CIRCLE
5
271
100
AcDbEntity
8
0
100
AcDbCircle
10
-33.930894001363249
20
86.602135788643949
30
0
40
0.78000000000000291
210
0
220
0
230
1
0
CIRCLE
5
272
100
AcDbEntity
8
0
100
AcDbCircle
10
-49.365690001363177
20
90.019003788643928
30
0
40
0.77999999999999847
210
0
220
0
230
1
0
CIRCLE
5
273
100
AcDbEntity
8
0
100
AcDbCircle
10
-53.022330001363173
20
101.65644778864387
30
0
40
0.77999999999999847
210
0
220
0
230
1
0
CIRCLE
5
274
100
AcDbEntity
8
0
100
AcDbCircle
10
-39.06688200136324
20
87.405223788643923
30
0
40
0.77999999999999847
210
0
220
0
230
1
0
CIRCLE
5
275
100
AcDbEntity
8
0
100
AcDbCircle
10
-45.214998001363199
20
93.688279788643896
30
0
40
0.77999999999999847
210
0
220
0
230
1
0
CIRCLE
5
276
100
AcDbEntity
8
0
100
AcDbCircle
10
-49.332774001363177
20
97.736167788643911
30
0
40
0.77999999999999847
210
0
220
0
230
1
0
CIRCLE
5
277
100
AcDbEntity
8
0
100
AcDbCircle
10
-39.335670001363233
20
98.490583788643903
30
0
40
0.77999999999999847
210
0
220
0
230
1
0
CIRCLE
5
278
100
AcDbEntity
8
0
100
AcDbCircle
10
-30.08908200136328
20
94.242859788643898
30
0
40
0.78000000000000291
210
0
220
0
230
1
0
CIRCLE
5
279
100
AcDbEntity
8
0
100
AcDbCircle
10
-41.413122001363227
20
106.44299578864384
30
0
40
0.77999999999999847
210
0
220
0
230
1
0
CIRCLE
5
280
100
AcDbEntity
8
0
100
AcDbCircle
10
-46.909470001363196
20
82.545979788643976
30
0
40
0.77999999999999847
210
0
220
0
230
1
0
CIRCLE
5
281
100
AcDbEntity
8
0
100
AcDbCircle
10
-43.362342001363217
20
91.87493578864391
30
0
40
0.77999999999999847
210
0
220
0
230
1
0
CIRCLE
5
282
100
AcDbEntity
8
0
100
AcDbCircle
10
-36.922974001363251
20
97.154131788643895
30
0
40
0.78000000000000291
210
0
220
0
230
1
0
CIRCLE
5
283
100
AcDbEntity
8
0
100
AcDbCircle
10
-38.602470001363244
20
101.05678378864388
30
0
40
0.77999999999999847
210
0
220
0
230
1
0
CIRCLE
5
284
100
AcDbEntity
8
0
100
AcDbCircle
10
-53.371458001363159
20
110.14253578864383
30
0
40
0.77999999999999847
210
0
220
0
230
1
0
CIRCLE
5
285
100
AcDbEntity
8
0
100
AcDbCircle
10
-57.848034001363146
20
90.261427788643942
30
0
40
0.7800000000000008
210
0
220
0
230
1
0
CIRCLE
5
286
100
AcDbEntity
8
0
100
AcDbCircle
10
-32.699742001363262
20
89.76784378864393
30
0
40
0.78000000000000291
210
0
220
0
230
1
0
CIRCLE
5
287
100
AcDbEntity
8
0
100
AcDbCircle
10
-38.642406001363234
20
84.132811788643949
30
0
40
0.77999999999999847
210
0
220
0
230
1
0
CIRCLE
5
288
100
AcDbEntity
8
0
100
AcDbCircle
10
-57.210930001363138
20
97.264111788643902
30
0
40
0.77999999999999847
210
0
220
0
230
1
0
CIRCLE
5
289
100
AcDbEntity
8
0
100
AcDbCircle
10
-52.215030001363161
20
87.315835788643952
30
0
40
0.77999999999999847
210
0
220
0
230
1
0
CIRCLE
5
290
100
AcDbEntity
8
0
100
AcDbCircle
10
-37.816698001363235
20
92.5766237886439
30
0
40
0.77999999999999847
210
0
220
0
230
1
0
CIRCLE
5
291
100
AcDbEntity
8
0
100
AcDbCircle
10
-36.128622001363262
20
100.20814378864388
30
0
40
0.78000000000000291
210
0
220
0
230
1
0
CIRCLE
5
292
100
AcDbEntity
8
0
100
AcDbCircle
10
-48.422670001363187
20
84.677875788643959
30
0
40
0.77999999999999847
210
0
220
0
230
1
0
CIRCLE
5
293
100
AcDbEntity
8
0
100
AcDbCircle
10
-46.982634001363195
20
91.113187788643941
30
0
40
0.77999999999999847
210
0
220
0
230
1
0
CIRCLE
5
294
100
AcDbEntity
8
0
100
AcDbCircle
10
-32.877894001363266
20
95.907691788643888
30
0
40
0.78000000000000291
210
0
220
0
230
1
0
CIRCLE
5
295
100
AcDbEntity
8
0
100
AcDbCircle
10
-45.483942001363204
20
85.428391788643964
30
0
40
0.77999999999999847
210
0
220
0
230
1
0
CIRCLE
5
296
100
AcDbEntity
8
0
100
AcDbCircle
10
-35.478726001363263
20
94.98214378864391
30
0
40
0.78000000000000291
210
0
220
0
230
1
0
CIRCLE
5
297
100
AcDbEntity
8
0
100
AcDbCircle
10
-43.700862001363191
20
83.514427788643957
30
0
40
0.77999999999999847
210
0
220
0
230
1
0
CIRCLE
5
298
100
AcDbEntity
8
0
100
AcDbCircle
10
-35.989314001363255
20
108.85974778864383
30
0
40
0.78000000000000291
210
0
220
0
230
1
0
CIRCLE
5
299
100
AcDbEntity
8
0
100
AcDbCircle
10
-46.951122001363188
20
100.59096778864388
30
0
40
0.77999999999999847
210
0
220
0
230
1
0
LINE
5
300
100
AcDbEntity
8
0
100
AcDbLine
10
-85.946856888484362
20
147.78070849433871
30
0
11
-122.94731243155681
21
147.78070849433868
31
0
0
LINE
5
301
100
AcDbEntity
8
0
100
AcDbLine
10
-125.94731243155681
20
164.28070849433857
30
0
11
-125.94731243155681
21
174.28070849433857
31
0
0
LINE
5
302
100
AcDbEntity
8
0
100
AcDbLine
10
-122.94731243155681
20
147.78070849433868
30
0
11
-122.94731288848436
21
164.28070849433857
31
0
0
LWPOLYLINE
5
303
100
AcDbEntity
8
0
100
AcDbPolyline
90
4
70
1
43
0.0
10
-116.86731243155684
20
150.63070849433862
10
-116.86731243155684
20
162.9307084943386
10
-94.447312431556867
20
162.9307084943386
10
-94.447312431556867
20
150.63070849433865
0
LINE
5
304
100
AcDbEntity
8
0
100
AcDbLine
10
-85.946856888484362
20
176.78070849433857
30
0
11
-85.946856888484362
21
162.9307084943386
31
0
0
LINE
5
305
100
AcDbEntity
8
0
100
AcDbLine
10
-85.946856888484362
20
150.63070849433868
30
0
11
-85.946856888484362
21
147.78070849433871
31
0
0
LINE
5
306
100
AcDbEntity
8
0
100
AcDbLine
10
-122.94731243155681
20
174.28070849433857
30
0
11
-122.94731243155681
21
176.78070849433857
31
0
0
LINE
5
307
100
AcDbEntity
8
0
100
AcDbLine
10
-122.94731288848436
20
164.28070849433857
30
0
11
-125.94731243155681
21
164.28070849433857
31
0
0
LINE
5
308
100
AcDbEntity
8
0
100
AcDbLine
10
-125.94731243155681
20
174.28070849433857
30
0
11
-122.94731243155681
21
174.28070849433857
31
0
0
LINE
5
309
100
AcDbEntity
8
0
100
AcDbLine
10
-122.94731243155681
20
176.78070849433857
30
0
11
-85.946856888484362
21
176.78070849433857
31
0
0
CIRCLE
5
310
100
AcDbEntity
8
0
100
AcDbCircle
10
-119.30731243155684
20
156.78070849433863
30
0
40
0.74999999999999956
210
0
220
0
230
1
0
CIRCLE
5
311
100
AcDbEntity
8
0
100
AcDbCircle
10
-92.007312431556898
20
156.78070849433868
30
0
40
0.75000000000000078
210
0
220
0
230
1
0
LINE
5
312
100
AcDbEntity
8
0
100
AcDbLine
10
-64.017610870625901
20
87.599119706869118
30
0
11
-72.017610870625873
21
87.599119706869132
31
0
0
LINE
5
313
100
AcDbEntity
8
0
100
AcDbLine
10
-64.017610870625916
20
87.599119706869118
30
0
11
-64.017610870625916
21
90.599119706869104
31
0
0
LWPOLYLINE
5
314
100
AcDbEntity
8
0
100
AcDbPolyline
90
19
70
1
43
0.0
10
-56.103299290358478
20
58.863133873177617
10
-53.559155001889195
20
57.273376080477988
10
-51.969397185500341
20
59.817520406857966
10
-28.22404970963251
20
44.979780518750644
10
-29.813807526021353
20
42.435636192370666
10
-27.269663237552081
20
40.845878399671037
10
-25.679905421163216
20
43.390022726051015
10
-16.210466734026511
20
37.472860710674794
42
0.17260214170067947
10
-15.105553228771097
20
42.492352517368431
10
-16.430388836988342
20
53.02155425892937
42
-0.35752166657580364
10
-35.615250310154387
20
65.091029359487621
42
-0.2005788092051223
10
-53.881923509805034
20
68.087669859094945
10
-54.302194248807112
20
68.350284163401653
10
-55.362032777273527
20
66.654187971088788
10
-20.59206005137213
20
44.927497647949799
42
-0.99999999999999989
10
-21.651898540356498
20
43.231401518821443
10
-56.421871305739941
20
64.958091778775952
10
-57.48170981051711
20
63.261995624373796
10
-54.51354147396961
20
61.407278199557581
0
LWPOLYLINE
5
315
100
AcDbEntity
8
0
100
AcDbPolyline
90
19
70
1
43
0.0
10
-161.01570641736205
20
111.41041294343914
10
-172.18186400919512
20
111.41041294343914
42
0.17260214170068039
10
-170.45895839871685
20
106.56812752135355
10
-163.75580724359705
20
98.340913941112333
42
-0.35752166657580359
10
-141.09027463128501
20
98.271846236752637
42
-0.20057880920512219
10
-124.01127967248641
20
105.41041298814264
10
-123.51570549349013
20
105.41041298814264
10
-123.51570549349009
20
107.41041298814265
10
-164.51570641736208
20
107.41041298814261
42
-0.99999999999999989
10
-164.51570641736208
20
109.41041291363683
10
-123.51570549349013
20
109.41041298814264
10
-123.51570549349013
20
111.41041294343914
10
-127.01570549349012
20
111.41041294343914
10
-127.01570549349012
20
114.41041298814262
10
-130.01570549349012
20
114.41041298814262
10
-130.01570549349012
20
111.41041294343914
10
-158.01570641736205
20
111.41041294343914
10
-158.01570641736205
20
114.41041298814262
10
-161.01570641736205
20
114.41041298814262
0
LINE
5
316
100
AcDbEntity
8
0
100
AcDbLine
10
-181.89645366071315
20
116.21647273465483
30
0
11
-181.89645366071315
21
119.21647273465481
31
0
0
LINE
5
317
100
AcDbEntity
8
0
100
AcDbLine
10
-195.67423143849089
20
119.21647273465481
30
0
11
-195.67423143849089
21
116.21647273465481
31
0
0
LINE
5
318
100
AcDbEntity
8
0
100
AcDbLine
10
-195.67423143849089
20
197.21647273465481
30
0
11
-195.67423143849089
21
194.21647273465481
31
0
0
LINE
5
319
100
AcDbEntity
8
0
100
AcDbLine
10
-250.78534254960203
20
194.21647273465481
30
0
11
-237.00756477182424
21
194.21647273465481
31
0
0
LINE
5
320
100
AcDbEntity
8
0
100
AcDbLine
10
-209.45200921626872
20
194.21647273465481
30
0
11
-209.45200921626872
21
197.21647273465481
31
0
0
LINE
5
321
100
AcDbEntity
8
0
100
AcDbLine
10
-165.11867588293538
20
174.0736155917977
30
0
11
-165.11867588293538
21
162.50218702036909
31
0
0
LINE
5
322
100
AcDbEntity
8
0
100
AcDbLine
10
-195.67423143849089
20
116.21647273465481
30
0
11
-209.45200921626872
21
116.21647273465483
31
0
0
LWPOLYLINE
5
323
100
AcDbEntity
8
0
100
AcDbPolyline
90
4
70
1
43
0.0
10
-285.6186768068074
20
194.21647273465484
10
-285.6186768068074
20
191.21647273465484
10
-288.6186768068074
20
191.21647273465484
10
-288.6186768068074
20
194.21647273465484
0
LINE
5
324
100
AcDbEntity
8
0
100
AcDbLine
10
-250.78534254960203
20
119.21647273465481
30
0
11
-250.78534254960203
21
116.21647273465481
31
0
0
LINE
5
325
100
AcDbEntity
8
0
100
AcDbLine
10
-165.11867588293538
20
162.50218702036909
30
0
11
-168.11867588293538
21
162.50218702036909
31
0
0
LINE
5
326
100
AcDbEntity
8
0
100
AcDbLine
10
-292.11867588293535
20
185.64504416322623
30
0
11
-295.11867588293535
21
185.64504416322623
31
0
0
LINE
5
327
100
AcDbEntity
8
0
100
AcDbLine
10
-237.00756477182426
20
197.21647273465481
30
0
11
-223.22978699404649
21
197.21647273465481
31
0
0
LINE
5
328
100
AcDbEntity
8
0
100
AcDbLine
10
-264.56312032737981
20
116.21647273465483
30
0
11
-264.56312032737981
21
119.21647273465481
31
0
0
LINE
5
329
100
AcDbEntity
8
0
100
AcDbLine
10
-292.11867588293535
20
150.93075844894054
30
0
11
-292.11867588293535
21
162.50218702036909
31
0
0
LINE
5
330
100
AcDbEntity
8
0
100
AcDbLine
10
-264.56312032737981
20
119.21647273465481
30
0
11
-278.34089810515758
21
119.21647273465481
31
0
0
LWPOLYLINE
5
331
100
AcDbEntity
8
0
100
AcDbPolyline
90
4
70
1
43
0.0
10
-254.61867588293532
20
122.21647273465481
10
-254.61867588293532
20
119.21647273465481
10
-257.61867588293535
20
119.21647273465481
10
-257.61867588293535
20
122.21647273465481
0
LINE
5
332
100
AcDbEntity
8
0
100
AcDbLine
10
-168.11867588293538
20
150.93075844894054
30
0
11
-165.11867588293538
21
150.93075844894054
31
0
0
LINE
5
333
100
AcDbEntity
8
0
100
AcDbLine
10
-237.00756477182424
20
194.21647273465481
30
0
11
-237.00756477182426
21
197.21647273465481
31
0
0
LINE
5
334
100
AcDbEntity
8
0
100
AcDbLine
10
-237.00756477182426
20
116.21647273465483
30
0
11
-237.00756477182426
21
119.21647273465481
31
0
0
LWPOLYLINE
5
335
100
AcDbEntity
8
0
100
AcDbPolyline
90
4
70
1
43
0.0
10
-257.61867588293535
20
194.21647273465484
10
-254.61867588293532
20
194.21647273465484
10
-254.61867588293532
20
191.21647273465484
10
-257.61867588293535
20
191.21647273465484
0
LINE
5
336
100
AcDbEntity
8
0
100
AcDbLine
10
-295.11867588293535
20
150.93075844894054
30
0
11
-292.11867588293535
21
150.93075844894054
31
0
0
LINE
5
337
100
AcDbEntity
8
0
100
AcDbLine
10
-292.11867588293535
20
174.07361559179765
30
0
11
-292.11867588293535
21
185.64504416322623
31
0
0
LINE
5
338
100
AcDbEntity
8
0
100
AcDbLine
10
-295.11867588293535
20
139.35932987751195
30
0
11
-295.11867588293535
21
150.93075844894054
31
0
0
LINE
5
339
100
AcDbEntity
8
0
100
AcDbLine
10
-209.45200921626872
20
197.21647273465481
30
0
11
-195.67423143849089
21
197.21647273465481
31
0
0
LINE
5
340
100
AcDbEntity
8
0
100
AcDbLine
10
-195.67423143849089
20
194.21647273465481
30
0
11
-176.89645366071312
21
194.21647273465481
31
0
0
LINE
5
341
100
AcDbEntity
8
0
100
AcDbLine
10
-165.11867588293538
20
127.7879013060834
30
0
11
-165.11867588293538
21
116.21647273465484
31
0
0
LINE
5
342
100
AcDbEntity
8
0
100
AcDbLine
10
-295.11867588293535
20
127.7879013060834
30
0
11
-292.11867588293535
21
127.7879013060834
31
0
0
LINE
5
343
100
AcDbEntity
8
0
100
AcDbLine
10
-237.00756477182426
20
119.21647273465481
30
0
11
-250.78534254960203
21
119.21647273465481
31
0
0
LINE
5
344
100
AcDbEntity
8
0
100
AcDbLine
10
-168.11867588293538
20
174.0736155917977
30
0
11
-165.11867588293538
21
174.0736155917977
31
0
0
LINE
5
345
100
AcDbEntity
8
0
100
AcDbLine
10
-223.22978699404649
20
197.21647273465481
30
0
11
-223.22978699404646
21
194.21647273465481
31
0
0
LINE
5
346
100
AcDbEntity
8
0
100
AcDbLine
10
-168.11867588293538
20
185.64504416322623
30
0
11
-168.11867588293538
21
174.0736155917977
31
0
0
LINE
5
347
100
AcDbEntity
8
0
100
AcDbLine
10
-295.11867588293535
20
197.21647273465481
30
0
11
-278.34089810515758
21
197.21647273465481
31
0
0
LINE
5
348
100
AcDbEntity
8
0
100
AcDbLine
10
-165.11867588293538
20
185.64504416322623
30
0
11
-168.11867588293538
21
185.64504416322623
31
0
0
LINE
5
349
100
AcDbEntity
8
0
100
AcDbLine
10
-292.11867588293535
20
127.7879013060834
30
0
11
-292.11867588293535
21
139.35932987751198
31
0
0
LINE
5
350
100
AcDbEntity
8
0
100
AcDbLine
10
-278.34089810515758
20
119.21647273465481
30
0
11
-278.34089810515758
21
116.21647273465481
31
0
0
LINE
5
351
100
AcDbEntity
8
0
100
AcDbLine
10
-168.11867588293538
20
127.7879013060834
30
0
11
-165.11867588293538
21
127.7879013060834
31
0
0
LINE
5
352
100
AcDbEntity
8
0
100
AcDbLine
10
-264.56312032737981
20
194.21647273465481
30
0
11
-264.56312032737981
21
197.21647273465481
31
0
0
LINE
5
353
100
AcDbEntity
8
0
100
AcDbLine
10
-181.89645366071315
20
119.21647273465481
30
0
11
-195.67423143849089
21
119.21647273465481
31
0
0
LINE
5
354
100
AcDbEntity
8
0
100
AcDbLine
10
-165.11867588293538
20
116.21647273465484
30
0
11
-181.89645366071315
21
116.21647273465483
31
0
0
LINE
5
355
100
AcDbEntity
8
0
100
AcDbLine
10
-165.11867588293538
20
197.21647273465481
30
0
11
-165.11867588293538
21
185.64504416322623
31
0
0
LINE
5
356
100
AcDbEntity
8
0
100
AcDbLine
10
-165.11867588293538
20
150.93075844894054
30
0
11
-165.11867588293538
21
139.35932987751193
31
0
0
LINE
5
357
100
AcDbEntity
8
0
100
AcDbLine
10
-250.78534254960203
20
197.21647273465481
30
0
11
-250.78534254960203
21
194.21647273465481
31
0
0
LWPOLYLINE
5
358
100
AcDbEntity
8
0
100
AcDbPolyline
90
4
70
1
43
0.0
10
-288.6186768068074
20
119.21647273465481
10
-288.6186768068074
20
122.21647273465481
10
-285.6186768068074
20
122.21647273465481
10
-285.6186768068074
20
119.21647273465481
0
LINE
5
359
100
AcDbEntity
8
0
100
AcDbLine
10
-176.89645366071312
20
194.21647273465481
30
0
11
-176.89645366071315
21
197.21647273465481
31
0
0
LINE
5
360
100
AcDbEntity
8
0
100
AcDbLine
10
-292.11867588293535
20
139.35932987751198
30
0
11
-295.11867588293535
21
139.35932987751195
31
0
0
LINE
5
361
100
AcDbEntity
8
0
100
AcDbLine
10
-295.11867588293535
20
185.64504416322623
30
0
11
-295.11867588293535
21
197.21647273465481
31
0
0
LINE
5
362
100
AcDbEntity
8
0
100
AcDbLine
10
-278.34089810515758
20
197.21647273465481
30
0
11
-278.34089810515758
21
194.21647273465481
31
0
0
LINE
5
363
100
AcDbEntity
8
0
100
AcDbLine
10
-223.22978699404646
20
116.21647273465483
30
0
11
-237.00756477182426
21
116.21647273465483
31
0
0
LINE
5
364
100
AcDbEntity
8
0
100
AcDbLine
10
-223.22978699404646
20
119.21647273465481
30
0
11
-223.22978699404646
21
116.21647273465483
31
0
0
LINE
5
365
100
AcDbEntity
8
0
100
AcDbLine
10
-295.11867588293535
20
116.21647273465483
30
0
11
-295.11867588293535
21
127.7879013060834
31
0
0
LINE
5
366
100
AcDbEntity
8
0
100
AcDbLine
10
-250.78534254960203
20
116.21647273465481
30
0
11
-264.56312032737981
21
116.21647273465483
31
0
0
LINE
5
367
100
AcDbEntity
8
0
100
AcDbLine
10
-223.22978699404646
20
194.21647273465481
30
0
11
-209.45200921626872
21
194.21647273465481
31
0
0
LINE
5
368
100
AcDbEntity
8
0
100
AcDbLine
10
-168.11867588293538
20
139.35932987751195
30
0
11
-168.11867588293538
21
127.7879013060834
31
0
0
LINE
5
369
100
AcDbEntity
8
0
100
AcDbLine
10
-165.11867588293538
20
139.35932987751193
30
0
11
-168.11867588293538
21
139.35932987751195
31
0
0
LINE
5
370
100
AcDbEntity
8
0
100
AcDbLine
10
-168.11867588293538
20
162.50218702036909
30
0
11
-168.11867588293538
21
150.93075844894054
31
0
0
LINE
5
371
100
AcDbEntity
8
0
100
AcDbLine
10
-176.89645366071315
20
197.21647273465481
30
0
11
-165.11867588293538
21
197.21647273465481
31
0
0
LINE
5
372
100
AcDbEntity
8
0
100
AcDbLine
10
-209.45200921626872
20
119.21647273465481
30
0
11
-223.22978699404646
21
119.21647273465481
31
0
0
LINE
5
373
100
AcDbEntity
8
0
100
AcDbLine
10
-264.56312032737981
20
197.21647273465481
30
0
11
-250.78534254960203
21
197.21647273465481
31
0
0
LINE
5
374
100
AcDbEntity
8
0
100
AcDbLine
10
-209.45200921626872
20
116.21647273465483
30
0
11
-209.45200921626872
21
119.21647273465481
31
0
0
LINE
5
375
100
AcDbEntity
8
0
100
AcDbLine
10
-278.34089810515758
20
116.21647273465481
30
0
11
-295.11867588293535
21
116.21647273465483
31
0
0
LINE
5
376
100
AcDbEntity
8
0
100
AcDbLine
10
-278.34089810515758
20
194.21647273465481
30
0
11
-264.56312032737981
21
194.21647273465481
31
0
0
LINE
5
377
100
AcDbEntity
8
0
100
AcDbLine
10
-295.11867588293535
20
162.50218702036909
30
0
11
-295.11867588293535
21
172.07361559179765
31
0
0
LINE
5
378
100
AcDbEntity
8
0
100
AcDbLine
10
-292.11867588293535
20
162.50218702036909
30
0
11
-295.11867588293535
21
162.50218702036909
31
0
0
LWPOLYLINE
5
379
100
AcDbEntity
8
0
100
AcDbPolyline
90
24
70
1
43
0.0
10
-132.15555803877351
20
179.04756808227415
42
-0.99999999999999989
10
-126.05555803877351
20
179.04756808227407
10
-107.15555803877358
20
179.04756808227415
42
-0.99999999999999989
10
-101.05555803877358
20
179.04756808227407
10
-82.155558038773577
20
179.04756808227415
42
-0.99999999999999989
10
-76.055558038773583
20
179.04756808227407
10
-71.105558038773538
20
179.0475680822741
10
-71.105558038773538
20
168.32430843437413
10
-69.10555803877358
20
168.32430843437413
10
-69.10555803877358
20
157.32301088032361
10
-71.105558038773609
20
157.32301088032361
10
-71.105558038773609
20
146.04756808227415
10
-76.055558038773583
20
146.04756808227415
42
-0.99999999999999989
10
-82.155558038773577
20
146.04756808227415
10
-101.05555803877365
20
146.04756808227418
42
-0.99999999999999989
10
-107.15555803877351
20
146.04756808227418
10
-126.05555803877351
20
146.04756808227418
42
-0.99999999999999989
10
-132.15555803877351
20
146.04756808227418
10
-137.10555803877355
20
146.04756808227418
10
-137.10555803877355
20
157.32301088032364
10
-139.10555803877349
20
157.32301088032364
10
-139.10555803877358
20
168.32430843437407
10
-137.10555803877355
20
168.32430843437407
10
-137.10555803877349
20
179.04756808227407
0
CIRCLE
5
380
100
AcDbEntity
8
0
100
AcDbCircle
10
-120.10555803877352
20
183.5475680822741
30
0
40
1.9999999999999996
210
0
220
0
230
1
0
CIRCLE
5
381
100
AcDbEntity
8
0
100
AcDbCircle
10
-88.105558038773566
20
183.5475680822741
30
0
40
1.9999999999999996
210
0
220
0
230
1
0
CIRCLE
5
382
100
AcDbEntity
8
0
100
AcDbCircle
10
-120.10555803877352
20
141.54756808227418
30
0
40
1.9999999999999996
210
0
220
0
230
1
0
CIRCLE
5
383
100
AcDbEntity
8
0
100
AcDbCircle
10
-88.105558038773566
20
141.54756808227415
30
0
40
1.9999999999999996
210
0
220
0
230
1
0
LWPOLYLINE
5
384
100
AcDbEntity
8
0
100
AcDbPolyline
90
15
70
1
43
0.0
10
-144.60555803877341
20
142.48354229607983
10
-141.60555803877349
20
142.48354229607983
10
-141.60555803877349
20
135.48354229607986
10
-144.60555803877341
20
135.48354229607986
10
-144.60555803877349
20
132.48354229607983
10
-66.605558038773651
20
132.48354229607986
10
-66.605558038773651
20
135.48354229607983
10
-66.605558038773651
20
142.48354229607983
10
-63.60555803877368
20
142.48354229607983
10
-63.60555803877368
20
182.46159386846841
10
-66.605558038773651
20
182.46159386846841
10
-66.605558038773651
20
197.46159386846838
10
-141.60555803877349
20
197.46159386846838
10
-141.60555803877349
20
182.46159386846844
10
-144.60555803877341
20
182.46159386846844
0
LINE
5
385
100
AcDbEntity
8
0
100
AcDbLine
10
-295.11867588293535
20
172.07361559179765
30
0
11
-295.11867588293535
21
174.07361559179765
31
0
0
LINE
5
386
100
AcDbEntity
8
0
100
AcDbLine
10
-295.11867588293535
20
174.07361559179765
30
0
11
-292.11867588293535
21
174.07361559179765
31
0
0
LINE
5
387
100
AcDbEntity
8
0
100
AcDbLine
10
-88.946856888484334
20
162.0307084943386
30
0
11
-85.946856888484362
21
162.0307084943386
31
0
0
LINE
5
388
100
AcDbEntity
8
0
100
AcDbLine
10
-85.946856888484362
20
162.9307084943386
30
0
11
-85.946856888484362
21
162.0307084943386
31
0
0
LINE
5
389
100
AcDbEntity
8
0
100
AcDbLine
10
-85.946856888484362
20
150.63070849433868
30
0
11
-85.946856888484362
21
151.53070849433868
31
0
0
LINE
5
390
100
AcDbEntity
8
0
100
AcDbLine
10
-85.946856888484362
20
151.53070849433868
30
0
11
-88.946856888484334
21
151.53070849433868
31
0
0
LINE
5
391
100
AcDbEntity
8
0
100
AcDbLine
10
-88.946856888484334
20
162.0307084943386
30
0
11
-88.946856888484334
21
151.53070849433868
31
0
0
LWPOLYLINE
5
392
100
AcDbEntity
8
0
100
AcDbPolyline
90
50
70
1
43
0.0
10
-65.91702862330996
20
60.351909023440868
10
-64.325770344395863
20
62.895115088585243
10
-73.537677812753202
20
68.658912298931369
10
-74.3718330324742
20
68.658912298931369
10
-74.3718330324742
20
65.692142133054432
10
-74.392624603153422
20
65.658912298931384
10
-79.3718330324742
20
65.658912298931384
10
-79.3718330324742
20
68.658912298931369
10
-84.3718330324742
20
68.658912298931369
10
-84.3718330324742
20
65.658912298931384
10
-89.3718330324742
20
65.658912298931384
10
-89.3718330324742
20
56.658912298931355
10
-149.3718330324742
20
56.658912298931369
10
-149.37183400104968
20
50.058912298931375
10
-146.37183395634619
20
50.058912298931375
10
-146.37183303247417
20
51.658912298931376
10
-143.3718330324742
20
51.658912298931376
10
-143.3718330324742
20
39.658912298931355
10
-146.37183303247417
20
39.658912298931355
10
-146.37183395634619
20
37.458912298931367
10
-149.37183400104968
20
37.458912298931359
10
-149.37183400104968
20
27.858912298931369
10
-146.37183395634619
20
27.858912298931369
10
-146.37183395634619
20
18.258912298931364
10
-149.37183400104968
20
18.258912298931364
10
-149.3718330324742
20
11.658912298931355
10
-132.59405525469643
20
11.658912298931357
10
-132.59405525469643
20
8.6589122989313552
10
-118.81627747691864
20
8.6589122989313552
10
-118.81627747691864
20
11.658912298931357
10
-105.03849969914086
20
11.658912298931357
10
-105.03849969914087
20
8.6589122989313552
10
-91.260721921363086
20
8.6589122989313552
10
-91.260721921363086
20
11.658912298931357
10
-77.4829441435853
20
11.658912298931357
10
-77.4829441435853
20
8.6589122989313552
10
-63.705166365807528
20
8.6589122989313552
10
-63.705166365807528
20
11.658912298931357
10
-49.927388588029743
20
11.658912298931357
10
-49.927388588029764
20
8.6589122989313552
10
-36.149610810251964
20
8.6589122989313552
10
-36.149610810251964
20
11.658912298931357
10
-19.371833032474193
20
11.658912298931357
10
-19.371833032474193
20
21.408912298931355
10
-22.371833032474193
20
21.408912298931355
10
-22.371833032474193
20
31.158912298931355
10
-19.371833032474193
20
31.158912298931355
10
-19.371833032474193
20
34.767891778695684
10
-30.43496260054436
20
41.689979908778824
10
-32.026220879458513
20
39.146773843634392
0
LWPOLYLINE
5
393
100
AcDbEntity
8
0
100
AcDbPolyline
90
4
70
1
43
0.0
10
-88.221833032474194
20
28.658456755858801
10
-92.871833032474186
20
28.658456755858801
10
-92.871833032474186
20
31.658456755858797
10
-88.221833032474194
20
31.658456755858797
0
LWPOLYLINE
5
394
100
AcDbEntity
8
0
100
AcDbPolyline
90
4
70
1
43
0.0
10
-100.52183303247419
20
28.658456755858801
10
-100.52183303247419
20
31.658456755858797
10
-95.8718330324742
20
31.658456755858797
10
-95.8718330324742
20
28.658456755858801
0
CIRCLE
5
395
100
AcDbEntity
8
0
100
AcDbCircle
10
-94.376453914862637
20
34.713686725233728
30
0
40
2.6000000000000001
210
0
220
0
230
1
0
ENDSEC
0
SECTION
2
OBJECTS
0
DICTIONARY
5
C
100
AcDbDictionary
3
ACAD_GROUP
350
D
3
ACAD_MLINESTYLE
350
17
0
DICTIONARY
5
D
100
AcDbDictionary
0
DICTIONARY
5
1A
330
C
100
AcDbDictionary
0
DICTIONARY
5
17
100
AcDbDictionary
0
ENDSEC
0
EOF
